<svg width="46" height="54" viewBox="0 0 46 54" fill="none" xmlns="http://www.w3.org/2000/svg">
<path d="M7.25 20.9644V34.5356C7.25 36.3394 5.8325 37.7812 4.02688 37.7812C2.23438 37.7812 0.5 36.3281 0.5 34.5356V20.9644C0.5 19.1944 2.23438 17.7412 4.02688 17.7412C5.79688 17.7412 7.25 19.1944 7.25 20.9644ZM8.51562 39.3637C8.51562 41.2856 10.0625 42.8325 11.9844 42.8325H14.3169L14.3525 49.9931C14.3525 54.3169 20.8213 54.2831 20.8213 49.9931V42.8325H25.1806V49.9931C25.1806 54.2944 31.685 54.3056 31.685 49.9931V42.8325H34.0512C34.5052 42.831 34.9544 42.7401 35.3732 42.565C35.7921 42.3898 36.1723 42.1339 36.4921 41.8118C36.812 41.4896 37.0652 41.1076 37.2374 40.6876C37.4096 40.2676 37.4974 39.8177 37.4956 39.3637V18.3412H8.51562V39.3637ZM37.5781 17.2031H8.38625C8.38625 12.1875 11.3862 7.82812 15.8394 5.55562L13.6006 1.41937C13.2725 0.845618 14.105 0.481867 14.3863 0.973117L16.6588 5.14499C20.7481 3.32812 25.4487 3.42187 29.3506 5.14499L31.6119 0.984368C31.9044 0.479992 32.7256 0.854992 32.3975 1.43062L30.1588 5.55562C34.5763 7.82812 37.5763 12.1894 37.5763 17.2031H37.5781ZM17.5737 10.6987C17.5737 10.3725 17.4442 10.0597 17.2135 9.829C16.9828 9.59833 16.67 9.46874 16.3438 9.46874C15.6762 9.46874 15.1494 10.0312 15.1494 10.6987C15.1494 11.3662 15.6894 11.9287 16.3438 11.9287C17.0356 11.9287 17.5737 11.3662 17.5737 10.6987ZM30.8638 10.6987C30.8653 10.3779 30.7408 10.0692 30.5171 9.83916C30.2934 9.60912 29.9883 9.47611 29.6675 9.46874C29.3413 9.46874 29.0284 9.59833 28.7978 9.829C28.5671 10.0597 28.4375 10.3725 28.4375 10.6987C28.4375 11.025 28.5671 11.3378 28.7978 11.5685C29.0284 11.7992 29.3413 11.9287 29.6675 11.9287C30.3237 11.9287 30.8638 11.3662 30.8638 10.6987ZM41.9731 17.7431C40.2031 17.7431 38.75 19.1606 38.75 20.9662V34.5375C38.75 36.3412 40.2031 37.7831 41.9731 37.7831C43.7787 37.7831 45.5 36.33 45.5 34.5375V20.9662C45.5 19.1625 43.7656 17.7431 41.9731 17.7431Z" fill="#B9B9B9"/>
</svg>
