<svg width="556" height="437" viewBox="0 0 556 437" fill="none" xmlns="http://www.w3.org/2000/svg">
<g clip-path="url(#clip0)">
<path d="M476.35 236.731C476.35 303.946 438.511 363.409 380.507 399.607C343.317 422.82 297.831 436.469 248.719 436.469C183.292 436.469 133.383 410.716 95.8409 371.267C61.2372 334.916 37.1426 286.923 21.088 236.731C-50.5835 12.6326 69.1446 -48.5044 248.719 36.9928C363.055 91.4354 476.35 126.422 476.35 236.731Z" fill="#B7A720"/>
<path d="M380.507 119.414V400.138C343.317 423.351 297.831 437 248.719 437C183.292 437 133.383 411.248 95.8409 371.799V119.414H380.507Z" fill="#F2F2F2"/>
<path d="M123.221 256.199C138.126 251.261 153.59 248.39 169.215 247.659C177.044 247.312 184.887 247.632 192.667 248.615C200.371 249.676 207.982 251.373 215.428 253.69C222.785 255.908 230.04 258.471 237.372 260.774C244.82 263.143 252.392 265.067 260.051 266.537C267.67 267.973 275.365 268.928 283.094 269.398C290.748 269.861 298.477 269.952 306.109 269.102C313.239 268.387 320.221 266.544 326.817 263.636C332.968 260.84 338.652 257.043 343.657 252.386C344.906 251.225 346.108 250.013 347.262 248.749C347.943 248.008 346.862 246.879 346.18 247.622C336.423 258.244 323.599 264.83 309.69 267.029C302.113 268.228 294.391 268.297 286.747 267.988C278.931 267.674 271.142 266.854 263.425 265.534C255.801 264.217 248.258 262.429 240.838 260.18C233.549 257.98 226.359 255.445 219.095 253.159C211.768 250.762 204.288 248.906 196.711 247.604C189.111 246.399 181.43 245.844 173.744 245.944C158.385 246.2 143.125 248.553 128.354 252.944C126.499 253.487 124.653 254.059 122.814 254.662C121.878 254.968 122.278 256.507 123.221 256.199H123.221Z" fill="#3F3D56"/>
<path d="M123.221 296.578C138.126 291.64 153.59 288.769 169.215 288.038C177.044 287.691 184.887 288.011 192.667 288.994C200.371 290.055 207.982 291.752 215.428 294.069C222.785 296.287 230.04 298.85 237.372 301.153C244.82 303.522 252.392 305.446 260.051 306.916C267.67 308.352 275.365 309.307 283.094 309.777C290.748 310.24 298.477 310.33 306.109 309.481C313.239 308.766 320.221 306.923 326.817 304.014C332.968 301.219 338.652 297.422 343.657 292.765C344.906 291.604 346.108 290.392 347.262 289.128C347.943 288.387 346.862 287.258 346.18 288.001C336.423 298.623 323.599 305.209 309.69 307.408C302.113 308.606 294.391 308.676 286.747 308.367C278.931 308.053 271.142 307.233 263.425 305.913C255.801 304.596 248.258 302.808 240.838 300.559C233.549 298.359 226.359 295.824 219.095 293.538C211.768 291.141 204.288 289.285 196.711 287.983C189.111 286.778 181.43 286.223 173.744 286.323C158.385 286.579 143.125 288.932 128.354 293.323C126.499 293.866 124.653 294.438 122.814 295.041C121.878 295.347 122.278 296.886 123.221 296.578H123.221Z" fill="#3F3D56"/>
<path d="M123.221 219.539C138.126 214.601 153.59 211.73 169.215 210.999C177.044 210.652 184.887 210.972 192.667 211.955C200.371 213.016 207.982 214.713 215.428 217.03C222.785 219.248 230.04 221.811 237.372 224.114C244.82 226.483 252.392 228.407 260.051 229.877C267.67 231.313 275.365 232.268 283.094 232.738C290.748 233.201 298.477 233.291 306.109 232.442C313.239 231.727 320.221 229.884 326.817 226.975C332.968 224.18 338.652 220.383 343.657 215.726C344.906 214.565 346.108 213.353 347.262 212.089C347.943 211.348 346.862 210.219 346.18 210.962C336.423 221.584 323.599 228.17 309.69 230.369C302.113 231.567 294.391 231.637 286.747 231.328C278.931 231.014 271.142 230.194 263.425 228.874C255.801 227.557 248.258 225.769 240.838 223.52C233.549 221.32 226.359 218.785 219.095 216.498C211.768 214.102 204.288 212.246 196.711 210.944C189.111 209.739 181.43 209.183 173.744 209.284C158.385 209.54 143.125 211.893 128.354 216.284C126.499 216.827 124.653 217.399 122.814 218.002C121.878 218.308 122.278 219.847 123.221 219.539H123.221Z" fill="#3F3D56"/>
<path d="M121.398 150.226C125.101 148.517 129.343 148.815 133.185 149.806C137.329 150.874 141.231 152.731 145.31 154.016C152.611 156.281 160.367 156.435 167.746 154.459C171.9 153.355 175.864 151.586 179.495 149.214C180.327 148.669 179.56 147.29 178.723 147.838C172.249 152.048 164.766 154.27 157.133 154.248C153.306 154.242 149.499 153.658 145.832 152.515C141.782 151.25 137.912 149.414 133.81 148.326C129.464 147.172 124.803 146.922 120.625 148.849C119.727 149.264 120.504 150.638 121.398 150.226V150.226Z" fill="#3F3D56"/>
<path d="M235.113 394.629C248.074 394.629 258.58 383.687 258.58 370.189C258.58 356.691 248.074 345.749 235.113 345.749C222.153 345.749 211.646 356.691 211.646 370.189C211.646 383.687 222.153 394.629 235.113 394.629Z" fill="#3F3D56"/>
<path d="M108.595 69.4714C115.639 69.4714 121.349 63.5246 121.349 56.1888C121.349 48.8531 115.639 42.9062 108.595 42.9062C101.551 42.9062 95.8409 48.8531 95.8409 56.1888C95.8409 63.5246 101.551 69.4714 108.595 69.4714Z" fill="#F2F2F2"/>
<path d="M220.319 102.943C225.108 102.943 228.991 98.8994 228.991 93.9111C228.991 88.9227 225.108 84.8789 220.319 84.8789C215.529 84.8789 211.646 88.9227 211.646 93.9111C211.646 98.8994 215.529 102.943 220.319 102.943Z" fill="#F2F2F2"/>
<path d="M79.516 189.546C84.3058 189.546 88.1886 185.502 88.1886 180.514C88.1886 175.525 84.3058 171.481 79.516 171.481C74.7262 171.481 70.8434 175.525 70.8434 180.514C70.8434 185.502 74.7262 189.546 79.516 189.546Z" fill="#F2F2F2"/>
<path d="M44.5985 113.414H43.6421V291.53H44.5985V113.414Z" fill="#3F3D56"/>
<path d="M44.3048 276.266C54.6047 276.266 62.9544 256.422 62.9544 231.943C62.9544 207.463 54.6047 187.619 44.3048 187.619C34.005 187.619 25.6553 207.463 25.6553 231.943C25.6553 256.422 34.005 276.266 44.3048 276.266Z" fill="#3F3D56"/>
<path d="M44.3048 175.169C54.6047 175.169 62.9544 155.324 62.9544 130.845C62.9544 106.366 54.6047 86.5215 44.3048 86.5215C34.005 86.5215 25.6553 106.366 25.6553 130.845C25.6553 155.324 34.005 175.169 44.3048 175.169Z" fill="#3F3D56"/>
<path d="M44.7629 94.6325L43.8466 94.3465C43.9045 94.1452 49.5271 74.0788 40.295 61.161C35.0806 53.8653 26.1329 50.166 13.7003 50.166V49.1699C26.4537 49.1699 35.6603 53.0055 41.0648 60.5701C50.5827 73.8928 44.8222 94.4268 44.7629 94.6325Z" fill="#3F3D56"/>
<path d="M13.7005 62.1187C20.3029 62.1187 25.6553 56.5444 25.6553 49.6682C25.6553 42.792 20.3029 37.2178 13.7005 37.2178C7.09797 37.2178 1.74561 42.792 1.74561 49.6682C1.74561 56.5444 7.09797 62.1187 13.7005 62.1187Z" fill="#3F3D56"/>
<path d="M393.196 331.893L384.252 417.591H445.967L448.651 411.071L452.228 417.591H510.366C510.366 417.591 505.894 329.098 497.844 326.304C489.794 323.509 393.196 331.893 393.196 331.893Z" fill="#2F2E41"/>
<path d="M445.967 143.728C463.257 143.728 477.272 129.131 477.272 111.125C477.272 93.1192 463.257 78.5225 445.967 78.5225C428.678 78.5225 414.662 93.1192 414.662 111.125C414.662 129.131 428.678 143.728 445.967 143.728Z" fill="#FFB8B8"/>
<path d="M428.079 131.619C428.079 131.619 430.762 161.427 428.079 163.29C425.396 165.153 471.011 164.222 471.011 164.222C471.011 164.222 464.75 137.208 471.011 124.167L428.079 131.619Z" fill="#FFB8B8"/>
<path d="M444.179 156.769C444.179 156.769 467.193 160.502 469.102 153.047L480.85 169.81L481.745 337.482C481.745 337.482 386.041 349.591 382.463 330.03C378.885 310.468 419.135 155.838 419.135 155.838L429.267 155.155C429.267 155.155 442.39 156.769 444.179 156.769Z" fill="#D0CDE1"/>
<path d="M429.115 147.505L413.768 153.043L369.941 164.221L371.73 276.002C371.73 276.002 334.164 387.783 351.158 396.167C368.152 404.55 392.302 384.989 399.457 371.016C406.613 357.043 431.656 163.29 431.656 159.564C431.656 155.838 429.115 147.505 429.115 147.505Z" fill="#3F3D56"/>
<path d="M468.527 147.505L474.589 153.043L517.522 173.537L496.055 286.249C496.055 286.249 524.677 388.715 513.944 394.304C503.211 399.893 487.111 415.728 483.533 406.413C479.956 397.098 458.888 157.802 468.527 147.505Z" fill="#3F3D56"/>
<path d="M493.372 296.495C493.372 296.495 453.123 278.797 452.228 294.632C451.334 310.468 497.844 321.646 497.844 316.989C497.844 312.331 493.372 296.495 493.372 296.495Z" fill="#FFB8B8"/>
<path d="M394.985 289.975C394.985 289.975 441.495 326.303 423.607 335.618C405.718 344.933 382.463 303.016 382.463 303.016L394.985 289.975Z" fill="#FFB8B8"/>
<path d="M459.866 63.3679C460.013 63.0437 460.249 62.7728 460.545 62.5898C460.842 62.4068 461.183 62.3202 461.527 62.341C447.195 61.4482 432.099 63.1879 420.109 71.4132C416.751 73.7168 413.615 76.5337 409.792 77.8318L412.895 80.3662L409.188 81.5433L414.644 85.216C414.093 85.8683 413.386 86.3573 412.595 86.6333C411.804 86.9093 410.957 86.9625 410.14 86.7874C412.511 87.5089 414.257 89.7066 415.144 92.108C416.031 94.5093 416.19 97.1246 416.34 99.6927C417.256 95.9873 421.139 93.806 424.807 93.5844C428.475 93.3628 432.052 94.6232 435.622 95.5292C443.397 97.4969 451.472 97.8204 459.369 96.4806C456.687 102.085 458.949 108.77 461.225 114.566L465.77 126.138C468.294 126.403 470.077 123.789 471.978 122.041C473.711 120.448 466.813 134.461 467.881 133.948C469.268 133.281 483.911 116.445 484.596 115.022C487.725 108.533 489.602 101.295 489.319 94.0392C489.037 86.7839 486.488 79.5249 481.686 74.2602C478.426 70.686 473.916 70.0601 470.592 67.0895C469.284 65.9204 469.279 65.007 467.482 64.3253C466.884 64.0989 459.964 63.1397 459.866 63.3679Z" fill="#2F2E41"/>
<path d="M376.202 167.016L369.941 164.222L319.853 249.92C319.853 249.92 310.909 272.276 327.008 282.523C343.108 292.77 380.674 323.509 380.674 323.509L402.14 289.044C402.14 289.044 358.313 267.619 360.997 259.235C363.68 250.852 377.991 228.496 377.991 228.496L376.202 167.016Z" fill="#3F3D56"/>
<path d="M505.894 171.674L517.522 173.537C517.522 173.537 565.821 272.277 554.193 290.907C542.566 309.537 495.161 335.619 495.161 335.619C495.161 335.619 494.267 304.879 486.217 293.701L513.944 282.523L498.739 221.044L505.894 171.674Z" fill="#3F3D56"/>
</g>
<defs>
<clipPath id="clip0">
<rect width="556" height="437" fill="white"/>
</clipPath>
</defs>
</svg>
