<svg width="46" height="46" viewBox="0 0 46 46" fill="none" xmlns="http://www.w3.org/2000/svg">
<path d="M33.6 21.775L37.525 17.85L28.15 8.47504L24.225 12.4L13.875 2.07504C11.925 0.125036 8.75 0.125036 6.8 2.07504L2.05 6.82504C0.0999998 8.77504 0.0999998 11.95 2.05 13.9L12.375 24.225L0.5 36.125V45.5H9.875L21.775 33.6L32.1 43.925C34.475 46.3 37.675 45.425 39.175 43.925L43.925 39.175C45.875 37.225 45.875 34.05 43.925 32.1L33.6 21.775ZM15.95 20.675L5.6 10.35L10.325 5.60004L13.5 8.77503L10.55 11.75L14.075 15.275L17.05 12.3L20.675 15.925L15.95 20.675ZM35.65 40.4L25.325 30.075L30.075 25.325L33.7 28.95L30.725 31.925L34.25 35.45L37.225 32.475L40.4 35.65L35.65 40.4ZM44.775 10.6C45.0068 10.3688 45.1906 10.094 45.3161 9.7916C45.4415 9.48916 45.5061 9.16496 45.5061 8.83754C45.5061 8.51011 45.4415 8.18591 45.3161 7.88347C45.1906 7.58104 45.0068 7.30632 44.775 7.07504L38.925 1.22504C37.75 0.0500355 36.125 0.500035 35.4 1.22504L30.825 5.80003L40.2 15.175L44.775 10.6Z" fill="#B9B9B9"/>
</svg>
