<svg width="90" height="90" viewBox="0 0 90 90" fill="none" xmlns="http://www.w3.org/2000/svg">
<g filter="url(#filter0_f)">
<rect x="10" y="10" width="70" height="70" rx="5" fill="#34342F"/>
</g>
<path d="M45 23C38.7584 23 37.9735 23.0288 35.5211 23.138C33.0688 23.253 31.3984 23.6382 29.935 24.2075C28.4 24.7849 27.0097 25.6905 25.8611 26.8611C24.6912 28.0103 23.7857 29.4004 23.2075 30.935C22.6382 32.3955 22.2501 34.0687 22.138 36.5125C22.0288 38.9706 22 39.7526 22 46.0029C22 52.2474 22.0288 53.0294 22.138 55.4818C22.253 57.9313 22.6382 59.6016 23.2075 61.065C23.7969 62.5772 24.5818 63.8595 25.8611 65.1389C27.1376 66.4182 28.4199 67.206 29.9321 67.7925C31.3984 68.3618 33.0659 68.7499 35.5154 68.862C37.9706 68.9712 38.7526 69 45 69C51.2474 69 52.0265 68.9712 54.4818 68.862C56.9284 68.747 58.6045 68.3618 60.0679 67.7925C61.6019 67.2149 62.9912 66.3092 64.1389 65.1389C65.4182 63.8595 66.2031 62.5772 66.7925 61.065C67.3589 59.6016 67.747 57.9313 67.862 55.4818C67.9712 53.0294 68 52.2474 68 46C68 39.7526 67.9712 38.9706 67.862 36.5154C67.747 34.0688 67.3589 32.3955 66.7925 30.935C66.2144 29.4004 65.3089 28.0102 64.1389 26.8611C62.9907 25.6901 61.6002 24.7844 60.065 24.2075C58.5988 23.6382 56.9255 23.2501 54.4789 23.138C52.0236 23.0288 51.2445 23 44.9943 23H45.0029H45ZM42.9386 27.1458H45.0029C51.1439 27.1458 51.8713 27.1659 54.2949 27.278C56.5374 27.3786 57.7564 27.7552 58.5671 28.0686C59.6395 28.4855 60.4071 28.9858 61.2121 29.7908C62.0171 30.5957 62.5145 31.3605 62.9314 32.4358C63.2476 33.2436 63.6214 34.4626 63.722 36.7051C63.8341 39.1287 63.8571 39.8561 63.8571 45.9943C63.8571 52.1324 63.8341 52.8626 63.722 55.2862C63.6214 57.5287 63.2448 58.7449 62.9314 59.5556C62.5626 60.5543 61.9741 61.4573 61.2092 62.1978C60.4042 63.0028 59.6395 63.5001 58.5643 63.917C57.7593 64.2332 56.5402 64.607 54.2949 64.7105C51.8713 64.8198 51.1439 64.8456 45.0029 64.8456C38.8619 64.8456 38.1316 64.8198 35.708 64.7105C33.4655 64.607 32.2494 64.2332 31.4386 63.917C30.4396 63.5488 29.5357 62.9613 28.7936 62.1978C28.0282 61.4561 27.4387 60.5523 27.0686 59.5527C26.7552 58.7449 26.3786 57.5259 26.278 55.2834C26.1688 52.8598 26.1458 52.1324 26.1458 45.9885C26.1458 39.8475 26.1688 39.123 26.278 36.6994C26.3815 34.4569 26.7552 33.2379 27.0715 32.4271C27.4884 31.3547 27.9886 30.5871 28.7936 29.7821C29.5986 28.9771 30.3634 28.4798 31.4386 28.0629C32.2494 27.7466 33.4655 27.3729 35.708 27.2694C37.8298 27.1716 38.652 27.1429 42.9386 27.14V27.1458ZM57.2791 30.9637C56.9167 30.9637 56.5578 31.0351 56.2229 31.1738C55.8881 31.3125 55.5838 31.5158 55.3275 31.7721C55.0712 32.0284 54.8679 32.3327 54.7292 32.6675C54.5905 33.0024 54.5191 33.3613 54.5191 33.7238C54.5191 34.0862 54.5905 34.4451 54.7292 34.78C54.8679 35.1148 55.0712 35.4191 55.3275 35.6754C55.5838 35.9317 55.8881 36.135 56.2229 36.2737C56.5578 36.4124 56.9167 36.4838 57.2791 36.4838C58.0111 36.4838 58.7131 36.193 59.2307 35.6754C59.7483 35.1578 60.0391 34.4557 60.0391 33.7238C60.0391 32.9918 59.7483 32.2897 59.2307 31.7721C58.7131 31.2545 58.0111 30.9637 57.2791 30.9637ZM45.0029 34.1895C43.4362 34.1651 41.8803 34.4525 40.4258 35.0352C38.9713 35.6178 37.6472 36.484 36.5307 37.5832C35.4141 38.6825 34.5274 39.9929 33.9222 41.4381C33.3169 42.8834 33.0052 44.4346 33.0052 46.0014C33.0052 47.5683 33.3169 49.1195 33.9222 50.5648C34.5274 52.01 35.4141 53.3204 36.5307 54.4197C37.6472 55.5189 38.9713 56.3851 40.4258 56.9677C41.8803 57.5504 43.4362 57.8378 45.0029 57.8134C48.1037 57.765 51.0611 56.4992 53.2368 54.2893C55.4125 52.0794 56.632 49.1026 56.632 46.0014C56.632 42.9003 55.4125 39.9234 53.2368 37.7135C51.0611 35.5036 48.1037 34.2379 45.0029 34.1895ZM45.0029 38.3324C47.0365 38.3324 48.9867 39.1402 50.4247 40.5782C51.8627 42.0161 52.6705 43.9664 52.6705 46C52.6705 48.0336 51.8627 49.9839 50.4247 51.4218C48.9867 52.8598 47.0365 53.6676 45.0029 53.6676C42.9693 53.6676 41.019 52.8598 39.581 51.4218C38.1431 49.9839 37.3352 48.0336 37.3352 46C37.3352 43.9664 38.1431 42.0161 39.581 40.5782C41.019 39.1402 42.9693 38.3324 45.0029 38.3324Z" fill="white"/>
<defs>
<filter id="filter0_f" x="0" y="0" width="90" height="90" filterUnits="userSpaceOnUse" color-interpolation-filters="sRGB">
<feFlood flood-opacity="0" result="BackgroundImageFix"/>
<feBlend mode="normal" in="SourceGraphic" in2="BackgroundImageFix" result="shape"/>
<feGaussianBlur stdDeviation="5" result="effect1_foregroundBlur"/>
</filter>
</defs>
</svg>
