<svg width="65" height="76" viewBox="0 0 65 76" fill="none" xmlns="http://www.w3.org/2000/svg">
<path d="M64.887 14.8979L58.9859 69.7105L32.4604 75.8078L6.00792 69.719L0.112976 14.8979H64.887Z" fill="#E44D26"/>
<path d="M32.5 71.1476L53.934 66.2206L58.9766 19.3807H32.5V71.1476Z" fill="#F16529"/>
<path d="M21.0285 32.8276H32.5V26.104H12.1664L12.3604 27.9078L14.3535 46.4362H32.5V39.7126H21.7696L21.0285 32.8276Z" fill="#EBEBEB"/>
<path d="M22.8562 49.7984H14.7159L15.8519 60.3554L32.4627 64.1786L32.5 64.1702V57.1748L32.4645 57.1826L23.4336 55.1607L22.8562 49.7984Z" fill="#EBEBEB"/>
<path d="M6.13947 0H10.2604V3.37579H14.0301V0H18.1513V10.2227H14.0304V6.79957H10.2606V10.2227H6.13972V0H6.13947Z" fill="white"/>
<path d="M23.5701 3.3901H19.9428V0H31.3214V3.3901H27.6918V10.2227H23.5709V3.3901H23.5706H23.5701Z" fill="white"/>
<path d="M33.1271 0H37.424L40.0672 3.592L42.7078 0H47.0064V10.2227H42.9023V5.15579L40.0672 8.79052H39.9961L37.1592 5.15579V10.2227H33.1271V0Z" fill="white"/>
<path d="M49.0573 0H53.1794V6.84378H58.9746V10.2227H49.057V0H49.0573Z" fill="white"/>
<path d="M32.4721 46.4364H42.4574L41.5159 55.1564L32.4718 57.1804V64.1754L49.0958 60.3554L49.2177 59.2194L51.1235 41.5183L51.3213 39.7129H32.4721V46.4364Z" fill="white"/>
<path d="M32.4721 32.8111V32.8276H52.0592L52.2217 31.3164L52.5914 27.9078L52.7851 26.104H32.4721V32.8114V32.8111Z" fill="white"/>
</svg>
