<svg width="69" height="69" viewBox="0 0 69 69" fill="none" xmlns="http://www.w3.org/2000/svg">
<g clip-path="url(#clip0)">
<path d="M68.9612 15.5824C68.9868 15.6742 69 15.7688 69 15.8639V30.6487C69 31.035 68.7871 31.3918 68.4413 31.5839L55.6447 38.7288V52.8895C55.6448 53.079 55.5935 53.2651 55.4959 53.4293C55.3984 53.5935 55.258 53.7299 55.089 53.8249L28.3762 68.7365C28.3151 68.7699 28.2485 68.7914 28.1816 68.8146C28.1566 68.8225 28.1331 68.8374 28.1067 68.8442C27.92 68.8919 27.7237 68.8919 27.5369 68.8442C27.5062 68.8363 27.4784 68.8199 27.4493 68.8091C27.3881 68.7874 27.3243 68.7686 27.2661 68.7365L0.558738 53.8246C0.389026 53.7302 0.248007 53.594 0.149908 53.4298C0.0518094 53.2656 0.000101172 53.0792 0 52.8895L0 8.53503C0 8.4378 0.0140156 8.34345 0.0388125 8.25197C0.047168 8.22087 0.0665742 8.19264 0.0778945 8.16154C0.0986484 8.10508 0.118324 8.04706 0.148781 7.99453C0.169535 7.9595 0.199992 7.93128 0.225059 7.89887C0.257133 7.85574 0.286242 7.81131 0.323707 7.77341C0.355781 7.74257 0.397559 7.71957 0.433676 7.69265C0.474105 7.66024 0.509953 7.62522 0.555773 7.59961H0.557121L13.9113 0.143947C14.0804 0.0495766 14.2721 -9.15527e-05 14.4672 -9.15527e-05C14.6623 -9.15527e-05 14.854 0.0495766 15.0231 0.143947L28.3773 7.59961H28.38C28.4245 7.62679 28.4622 7.66024 28.5024 7.69134C28.5385 7.71827 28.5789 7.74257 28.6107 7.77237C28.6498 7.81131 28.6776 7.856 28.7107 7.89887C28.7345 7.93128 28.7665 7.9595 28.7859 7.99453C28.8177 8.04837 28.8358 8.10508 28.8582 8.1618C28.8692 8.19264 28.8886 8.22087 28.897 8.25328C28.9226 8.34502 28.9358 8.43989 28.9361 8.53503V36.238L40.0639 30.0246V15.8626C40.0639 15.7685 40.0779 15.6726 40.103 15.5824C40.1127 15.55 40.1308 15.5218 40.1418 15.491C40.1642 15.4342 40.1836 15.376 40.2141 15.3237C40.2348 15.2887 40.2653 15.2604 40.2893 15.228C40.3224 15.1849 40.3502 15.1405 40.389 15.1026C40.4213 15.0717 40.4615 15.0487 40.4976 15.0218C40.5394 14.9894 40.5755 14.9544 40.62 14.9288H40.6213L53.9769 7.47311C54.1459 7.37861 54.3376 7.32887 54.5328 7.32887C54.7279 7.32887 54.9196 7.37861 55.0887 7.47311L68.4429 14.9288C68.49 14.9557 68.5262 14.9894 68.5679 15.0202C68.6024 15.0474 68.6429 15.0717 68.6749 15.1013C68.7138 15.1405 68.7415 15.1849 68.7747 15.228C68.8 15.2604 68.8305 15.2887 68.8501 15.3237C68.8819 15.376 68.9 15.4342 68.9221 15.491C68.9348 15.5218 68.9528 15.55 68.9612 15.5824ZM66.7739 30.0249V17.7303L62.1005 20.339L55.6445 23.9437V36.2383L66.7753 30.0249H66.7739ZM53.4197 52.2656V39.9624L47.069 43.4796L28.9347 53.516V65.9344L53.4197 52.2651V52.2656ZM2.22606 10.4012V52.2656L26.7084 65.9334V53.5173L13.9186 46.4981L13.9146 46.4955L13.9092 46.4929C13.866 46.4686 13.8296 46.4335 13.7895 46.404C13.7544 46.3768 13.7143 46.3554 13.6838 46.3256L13.6811 46.3217C13.645 46.288 13.62 46.2461 13.5895 46.2085C13.5615 46.1719 13.5283 46.1411 13.5059 46.1034L13.5046 46.0993C13.4795 46.059 13.4642 46.0104 13.4461 45.9647C13.428 45.9241 13.4046 45.8862 13.3933 45.8434V45.8421C13.3795 45.7908 13.3768 45.7367 13.3712 45.6842C13.3658 45.644 13.3545 45.6035 13.3545 45.5629V16.6148L6.89946 13.0085L2.22606 10.4027V10.4012ZM14.4687 2.32424L3.34192 8.53503L14.466 14.7456L25.5912 8.53346L14.466 2.32424H14.4687ZM20.255 41.084L26.7097 37.4808V10.4012L22.0369 13.0101L15.5803 16.6146V43.6939L20.255 41.084ZM54.5326 9.6534L43.4075 15.8639L54.5326 22.0747L65.6565 15.8626L54.5329 9.6534H54.5326ZM53.4195 23.9437L46.9634 20.339L42.2903 17.7303V30.0249L48.745 33.6283L53.4197 36.2383V23.9437H53.4195ZM27.8202 51.6498L44.1384 42.6161L52.2955 38.1018L41.1784 31.8952L28.3787 39.0409L16.7128 45.5535L27.8202 51.6498Z" fill="#FF2D20"/>
</g>
<defs>
<clipPath id="clip0">
<rect width="69" height="69" fill="white"/>
</clipPath>
</defs>
</svg>
