<svg width="42" height="47" viewBox="0 0 42 47" fill="none" xmlns="http://www.w3.org/2000/svg">
<g clip-path="url(#clip0)">
<path d="M20.9784 46.8815L6.80591 43.1159L3.64927 9.21387H38.3527L35.1921 43.1103L20.9784 46.8815Z" fill="#264DE4"/>
<path d="M32.4833 40.9521L35.1843 11.9851H21V43.9996L32.4833 40.9521Z" fill="#2965F1"/>
<path d="M10.8877 24.5584L11.2767 28.717H20.998V24.5584H10.8877ZM10.1059 16.1436L10.5008 20.3021H21V16.1436H10.1059ZM21 35.3572L20.9804 35.3628L16.1423 34.1126L15.8339 30.7963H11.4731L12.082 37.3255L20.9823 39.6906L21.002 39.6849V35.3572H21Z" fill="#EBEBEB"/>
<path d="M11.8149 0H17.0773V2.1056H14.0169V4.2112H17.0792V6.3168H11.8149V0ZM18.1301 0H23.3925V1.83112H20.3302V2.19772H23.3925V6.40892H18.1301V4.48568H21.1925V4.11908H18.1301V0ZM24.4434 0H29.7058V1.83112H26.6435V2.19772H29.7058V6.40892H24.4434V4.48568H27.5058V4.11908H24.4454L24.4434 0Z" fill="white"/>
<path d="M31.0828 24.5584L31.8666 16.1416H20.9843V20.3002H27.1051L26.7102 24.5584H20.9843V28.7169H26.3331L25.8283 34.1088L20.9823 35.3608V39.6867L29.8885 37.3236L29.9533 36.6204L30.9748 25.6732L31.0828 24.5584Z" fill="white"/>
</g>
<defs>
<clipPath id="clip0">
<rect width="42" height="47" fill="white"/>
</clipPath>
</defs>
</svg>
