<svg width="629" height="291" viewBox="0 0 629 291" fill="none" xmlns="http://www.w3.org/2000/svg">
<path d="M603.065 153.836L564.23 172.881L598.6 146.25C593.014 137.215 586.739 128.658 579.834 120.661L411.414 164.039L563.545 103.904C556.593 97.5478 549.21 91.7166 541.454 86.455L284.821 129.29C257.573 164.598 242.72 208.456 242.699 253.666H629C628.984 218.604 620.038 184.167 603.065 153.836Z" fill="#99953D"/>
<path d="M520.45 74.09C494.102 60.7733 465.165 53.8729 435.849 53.9159C376.185 53.9159 322.842 81.9503 287.412 125.998C348.083 112.223 453.717 88.3771 520.45 74.09Z" fill="#99953D"/>
<path d="M462.644 256.964C462.644 263.179 406.903 281.883 338.142 281.883C269.381 281.883 213.64 263.179 213.64 256.964C213.64 250.749 269.381 259.376 338.142 259.376C406.903 259.376 462.644 250.749 462.644 256.964Z" fill="#3F3D56"/>
<path opacity="0.1" d="M462.644 256.964C462.644 263.179 406.903 281.883 338.142 281.883C269.381 281.883 213.64 263.179 213.64 256.964C213.64 250.749 269.381 259.376 338.142 259.376C406.903 259.376 462.644 250.749 462.644 256.964Z" fill="black"/>
<path d="M338.142 268.218C406.903 268.218 462.644 263.179 462.644 256.964C462.644 250.749 406.903 245.711 338.142 245.711C269.381 245.711 213.64 250.749 213.64 256.964C213.64 263.179 269.381 268.218 338.142 268.218Z" fill="#3F3D56"/>
<path d="M303.486 165.379C303.486 165.379 308.493 173.609 306.705 175.837C304.917 178.066 320.122 178.121 320.122 178.121C320.122 178.121 317.838 166.149 318.511 163.394L303.486 165.379Z" fill="#FFB8B8"/>
<path opacity="0.1" d="M303.486 165.379C303.486 165.379 308.493 173.609 306.705 175.837C304.917 178.066 320.122 178.121 320.122 178.121C320.122 178.121 317.838 166.149 318.511 163.394L303.486 165.379Z" fill="black"/>
<path d="M311.489 168.362C320.161 168.362 327.191 161.077 327.191 152.09C327.191 143.104 320.161 135.819 311.489 135.819C302.817 135.819 295.787 143.104 295.787 152.09C295.787 161.077 302.817 168.362 311.489 168.362Z" fill="#FF6584"/>
<path d="M348.42 240.285V249.931L357.728 247.921L356.953 241.089L348.42 240.285Z" fill="#FFB8B8"/>
<path d="M381.387 241.892L407.374 246.313L400.78 256.361C400.78 256.361 382.551 249.931 377.896 249.931C373.242 249.931 381.387 241.892 381.387 241.892Z" fill="#FFB8B8"/>
<path d="M322.434 222.601C322.434 222.601 341.826 199.29 348.032 200.495C354.238 201.701 356.953 208.936 356.953 208.936L360.444 244.706C360.444 244.706 348.032 245.912 348.032 244.706C348.032 243.5 345.705 217.778 345.705 217.778C345.705 217.778 327.476 259.577 317.779 231.845L322.434 222.601Z" fill="#2F2E41"/>
<path d="M291.017 238.275C291.017 238.275 291.405 258.371 303.041 259.577C314.676 260.782 327.476 251.538 327.476 251.538L348.42 241.141C348.42 241.141 373.243 254.754 380.612 251.136C380.612 251.136 388.369 242.696 383.327 240.285C378.285 237.873 382.939 240.285 382.939 240.285L353.074 224.208C353.074 224.208 347.256 222.601 337.172 227.022C327.088 231.443 313.513 233.452 313.513 233.452L291.017 238.275Z" fill="#2F2E41"/>
<path d="M310.41 169.548C316.836 169.548 322.045 164.15 322.045 157.491C322.045 150.832 316.836 145.433 310.41 145.433C303.983 145.433 298.774 150.832 298.774 157.491C298.774 164.15 303.983 169.548 310.41 169.548Z" fill="#FFB8B8"/>
<path d="M327.088 191.251L326.312 208.132C326.312 208.132 326.7 230.237 323.209 231.845C321.445 232.656 317.9 234.288 314.622 236.073C312.163 237.407 309.855 238.822 308.568 240.04C308.226 240.341 307.932 240.694 307.695 241.089C306.144 243.902 296.059 243.5 293.732 241.491C291.405 239.481 292.956 243.902 291.017 244.706C289.14 245.486 286.537 239.111 288.131 229.594C288.182 229.276 288.24 228.955 288.302 228.629C290.082 219.405 287.286 197.312 287.716 188.776C287.742 188.123 287.808 187.474 287.914 186.83C289.078 180.4 303.925 167.314 306.702 172.888C310.123 179.769 317.981 173.483 319.331 170.352C327.088 169.95 329.803 179.596 329.803 179.596L327.088 191.251Z" fill="#3F3D56"/>
<path d="M358.504 246.314C358.504 246.314 352.298 248.725 350.359 248.323C348.42 247.921 346.481 249.529 346.481 251.94C346.481 254.352 344.153 259.979 347.644 260.38C351.135 260.782 365.486 259.979 368.588 261.184C368.588 261.184 382.551 261.586 381.388 255.557C380.224 249.529 374.406 249.931 374.406 249.931C374.406 249.931 358.504 249.127 358.504 246.314Z" fill="#2F2E41"/>
<path d="M403.883 247.519C403.883 247.519 404.659 245.108 405.822 245.108C406.986 245.108 416.295 246.715 417.458 246.313C418.622 245.912 432.197 245.108 429.87 251.94C427.542 258.773 419.785 259.577 419.785 259.577C419.785 259.577 405.822 257.969 403.883 258.371C401.944 258.773 394.962 258.371 396.126 256.361C397.29 254.352 404.659 250.734 403.883 247.519Z" fill="#2F2E41"/>
<path d="M368.579 189.79L370.706 198.885C370.73 198.987 370.726 199.093 370.696 199.192L361.043 230.449C361.005 230.573 360.927 230.679 360.822 230.751C360.718 230.822 360.592 230.854 360.467 230.841C360.343 230.829 360.226 230.772 360.136 230.681C360.047 230.589 359.991 230.469 359.977 230.34L358.641 218.164C358.632 218.083 358.64 218.001 358.665 217.924L367.525 189.748C367.561 189.63 367.634 189.528 367.732 189.458C367.83 189.387 367.948 189.351 368.067 189.356C368.186 189.361 368.301 189.406 368.393 189.484C368.485 189.562 368.55 189.67 368.579 189.79Z" fill="#D0CDE1"/>
<path d="M367.796 190.558L369.761 198.362L361.247 226.863L359.283 218.041L367.796 190.558Z" fill="#F2F2F2"/>
<path d="M324.902 232.97C325.23 233.988 358.955 232.631 359.282 232.291C359.568 231.867 359.809 231.412 360.003 230.934C360.311 230.256 360.592 229.577 360.592 229.577L359.282 218.591L325.884 217.362C325.884 217.362 325.05 226.673 324.879 230.934C324.821 231.612 324.829 232.294 324.902 232.97Z" fill="#D0CDE1"/>
<path opacity="0.1" d="M355.026 220.077L355.681 229.577H340.946V220.077H355.026Z" fill="black"/>
<path opacity="0.1" d="M336.035 223.13L336.123 223.112L335.708 227.202H327.521V223.13H336.035Z" fill="black"/>
<path opacity="0.1" d="M324.902 232.969C325.23 233.987 358.955 232.63 359.282 232.291C359.568 231.866 359.809 231.411 360.003 230.934H324.879C324.821 231.612 324.829 232.293 324.902 232.969Z" fill="black"/>
<path d="M319.684 123.127C318.498 124.883 316.739 126.136 314.732 126.655C311.268 127.616 314.703 133.009 314.703 133.009C314.703 133.009 313.454 131.048 315.256 128.971C317.057 126.895 319.957 125.475 319.684 123.127Z" fill="#FF6584"/>
<path d="M314.09 138.837C316.507 138.837 318.466 136.807 318.466 134.303C318.466 131.798 316.507 129.768 314.09 129.768C311.673 129.768 309.714 131.798 309.714 134.303C309.714 136.807 311.673 138.837 314.09 138.837Z" fill="#FF6584"/>
<path d="M319.677 138.104C316.11 136.705 310.17 135.996 307.114 136.481L307.533 133.31C310.471 134.883 316.384 135.623 320.096 134.932L319.677 138.104Z" fill="#3F3D56"/>
<path d="M312.774 139.239C312.774 139.239 308.303 146.945 297.906 149.83C287.51 152.715 297.822 168.904 297.822 168.904C297.822 168.904 294.072 163.017 299.48 156.782C304.889 150.548 313.592 146.285 312.774 139.239Z" fill="#FF6584"/>
<path d="M313.129 138.77C313.129 138.77 317.424 149.355 322.139 150.356C326.854 151.357 326.497 168.082 319.123 170.59C319.123 170.59 324.5 160.785 319.904 154.209C315.307 147.633 312.404 142.435 313.129 138.77Z" fill="#FF6584"/>
<path opacity="0.1" d="M314.622 236.073C313.664 237.95 312.539 239.899 312.349 240.687C312.221 241.221 310.801 240.912 308.567 240.04C304.088 238.283 296.323 234.26 289.078 230.237C288.744 230.053 288.427 229.838 288.131 229.594C288.182 229.276 288.24 228.955 288.302 228.629C290.082 219.406 287.286 197.312 287.716 188.776L291.017 187.634L297.61 194.065V221.395C297.61 221.395 314.676 231.041 315.84 231.845C316.433 232.255 315.615 234.124 314.622 236.073Z" fill="black"/>
<path d="M329.027 214.161L339.499 219.787C339.499 219.787 345.705 212.955 349.584 218.18C353.462 223.405 338.336 225.012 338.336 225.012C338.336 225.012 325.149 221.797 324.761 217.376C324.373 212.955 329.027 214.161 329.027 214.161Z" fill="#FFB8B8"/>
<path d="M311.573 229.031L317.779 230.639C317.779 230.639 324.76 221.797 332.13 225.012C339.499 228.227 322.821 234.658 322.821 234.658C322.821 234.658 313.9 239.481 310.41 235.462C306.919 231.443 311.573 229.031 311.573 229.031Z" fill="#FFB8B8"/>
<path d="M325.148 175.979C325.536 176.381 329.803 179.596 329.803 179.596C329.803 179.596 330.966 194.869 329.415 198.084C327.863 201.299 326.7 201.299 327.863 202.907C329.027 204.515 330.578 203.309 329.027 206.122C327.476 208.936 325.924 208.534 327.088 209.739C328.251 210.945 327.863 211.347 327.863 211.347L332.518 215.366C332.518 215.366 329.662 220.079 326.048 219.732C322.433 219.385 319.331 201.299 319.331 201.299L325.148 175.979Z" fill="#3F3D56"/>
<path d="M291.017 185.625L287.526 186.831C287.526 186.831 278.218 222.199 289.078 228.227C299.938 234.256 311.961 240.285 312.349 238.677C312.737 237.069 317.003 230.639 315.84 229.835C314.676 229.031 297.61 219.385 297.61 219.385V192.055L291.017 185.625Z" fill="#3F3D56"/>
<path opacity="0.1" d="M296.253 200.295L295.478 219.586L316.034 229.634L297.029 219.586L296.253 200.295Z" fill="black"/>
<path d="M469.276 243.558C461.459 248.334 458.382 257.936 458.382 257.936C458.382 257.936 467.979 259.793 475.796 255.016C483.614 250.24 486.691 240.638 486.691 240.638C486.691 240.638 477.093 238.781 469.276 243.558Z" fill="#3F3D56"/>
<path d="M472.015 246.519C467.638 254.756 458.466 258.226 458.466 258.226C458.466 258.226 456.393 248.34 460.77 240.102C465.148 231.865 474.319 228.395 474.319 228.395C474.319 228.395 476.393 238.281 472.015 246.519Z" fill="#C5C50E"/>
<path d="M398.335 131.44C399.192 131.44 399.887 130.72 399.887 129.832C399.887 128.944 399.192 128.225 398.335 128.225C397.478 128.225 396.784 128.944 396.784 129.832C396.784 130.72 397.478 131.44 398.335 131.44Z" fill="#C5C50E"/>
<path d="M402.602 131.44C403.459 131.44 404.153 130.72 404.153 129.832C404.153 128.944 403.459 128.225 402.602 128.225C401.745 128.225 401.05 128.944 401.05 129.832C401.05 130.72 401.745 131.44 402.602 131.44Z" fill="#C5C50E"/>
<path d="M406.868 131.44C407.725 131.44 408.419 130.72 408.419 129.832C408.419 128.944 407.725 128.225 406.868 128.225C406.011 128.225 405.316 128.944 405.316 129.832C405.316 130.72 406.011 131.44 406.868 131.44Z" fill="#C5C50E"/>
<path opacity="0.3" d="M442.939 190.47H420.443V192.881H442.939V190.47Z" fill="#121211"/>
<path opacity="0.3" d="M441.723 195.695H420.443V198.106H441.723V195.695Z" fill="#121211"/>
<path opacity="0.3" d="M435.947 200.92H420.443V203.331H435.947V200.92Z" fill="#121211"/>
<g opacity="0.3">
<path opacity="0.3" d="M495.3 190.47H472.805V192.881H495.3V190.47Z" fill="black"/>
<path opacity="0.3" d="M494.084 195.695H472.804V198.106H494.084V195.695Z" fill="black"/>
<path opacity="0.3" d="M488.308 200.92H472.804V203.331H488.308V200.92Z" fill="black"/>
<path opacity="0.3" d="M495.3 190.47H472.805V192.881H495.3V190.47Z" fill="black"/>
<path opacity="0.3" d="M494.084 195.695H472.804V198.106H494.084V195.695Z" fill="black"/>
<path opacity="0.3" d="M488.308 200.92H472.804V203.331H488.308V200.92Z" fill="black"/>
</g>
<path opacity="0.3" d="M549.6 190.47H527.104V192.881H549.6V190.47Z" fill="#040404"/>
<path opacity="0.3" d="M548.384 195.695H527.104V198.106H548.384V195.695Z" fill="#040404"/>
<path opacity="0.3" d="M542.608 200.92H527.104V203.331H542.608V200.92Z" fill="#040404"/>
<path opacity="0.8" d="M446.042 159.121H417.34V185.647H446.042V159.121Z" fill="#FFF500"/>
<path d="M498.403 159.121H469.701V185.647H498.403V159.121Z" fill="#3F3D56"/>
<path d="M552.703 159.121H524.001V185.647H552.703V159.121Z" fill="#3F3D56"/>
<path d="M480.312 185.535L479.934 185.528C479.942 185.093 480.178 174.852 484.069 172.022L484.286 172.343C480.553 175.059 480.314 185.431 480.312 185.535Z" fill="#C5C50E"/>
<path d="M486.071 171.893C487.117 171.893 487.964 171.014 487.964 169.931C487.964 168.847 487.117 167.969 486.071 167.969C485.025 167.969 484.178 168.847 484.178 169.931C484.178 171.014 485.025 171.893 486.071 171.893Z" fill="#C5C50E"/>
<path d="M485.688 176.858C484.704 177.178 483.655 177.225 482.647 176.994C483.287 176.15 484.149 175.515 485.129 175.167C486.109 174.818 487.165 174.771 488.17 175.031C487.511 175.854 486.656 176.484 485.688 176.858Z" fill="#C5C50E"/>
<path d="M534.613 185.535L534.234 185.528C534.242 185.093 534.479 174.852 538.369 172.022L538.587 172.343C534.853 175.059 534.614 185.431 534.613 185.535Z" fill="#C5C50E"/>
<path d="M540.371 171.893C541.416 171.893 542.264 171.014 542.264 169.931C542.264 168.847 541.416 167.969 540.371 167.969C539.325 167.969 538.478 168.847 538.478 169.931C538.478 171.014 539.325 171.893 540.371 171.893Z" fill="#C5C50E"/>
<path d="M539.988 176.858C539.003 177.178 537.955 177.225 536.947 176.994C537.587 176.15 538.448 175.515 539.428 175.167C540.408 174.818 541.465 174.771 542.47 175.031C541.811 175.854 540.955 176.484 539.988 176.858Z" fill="#C5C50E"/>
<path d="M577.913 236.741H392.129V125.411H577.913V236.741ZM392.905 235.937H577.137V126.215H392.905V235.937Z" fill="#312F1B"/>
<path d="M577.526 133.476H392.518V134.279H577.526V133.476Z" fill="#2F2E41"/>
<path d="M282.596 66.5467V99.2231C282.596 99.525 282.481 99.8143 282.278 100.028C282.075 100.241 281.8 100.362 281.513 100.362H280.741V270.585C280.741 275.295 278.961 279.813 275.792 283.144C272.624 286.474 268.326 288.346 263.845 288.346H162.662C160.444 288.346 158.247 287.886 156.197 286.994C154.148 286.101 152.286 284.792 150.717 283.143C149.148 281.494 147.904 279.536 147.056 277.381C146.207 275.226 145.77 272.917 145.771 270.585V106.332H145.212C145.01 106.333 144.815 106.249 144.671 106.099C144.528 105.948 144.447 105.744 144.446 105.531V86.9347C144.446 86.8288 144.465 86.724 144.504 86.6262C144.542 86.5284 144.599 86.4395 144.67 86.3647C144.741 86.2898 144.826 86.2305 144.919 86.19C145.012 86.1495 145.112 86.1286 145.212 86.1287H145.771V79.1238H145.208C144.995 79.1229 144.791 79.0334 144.641 78.8748C144.491 78.7162 144.407 78.5016 144.408 78.278V59.9349C144.408 59.7121 144.493 59.4985 144.643 59.341C144.792 59.1834 144.996 59.0947 145.208 59.0941H145.771V49.532H145.198C145.105 49.5321 145.012 49.5129 144.926 49.4754C144.84 49.438 144.762 49.383 144.696 49.3137C144.63 49.2444 144.578 49.162 144.542 49.0714C144.506 48.9808 144.488 48.8837 144.488 48.7857V38.7758C144.488 38.5773 144.562 38.3867 144.695 38.2459C144.828 38.105 145.009 38.0255 145.198 38.0246H145.771V17.7561C145.771 13.0469 147.551 8.5307 150.718 5.20082C153.886 1.87095 158.182 0.00017152 162.662 1.81728e-10H263.845C268.325 -2.12891e-05 272.622 1.87054 275.791 5.20031C278.959 8.53008 280.74 13.0464 280.741 17.7561V65.4075H281.513C281.8 65.4083 282.075 65.5285 282.278 65.742C282.481 65.9555 282.596 66.2448 282.596 66.5467Z" fill="#3F3D56"/>
<path d="M218.128 9.10779H201.686C201.022 9.10779 200.483 9.67397 200.483 10.3724V11.8662C200.483 12.5647 201.022 13.1309 201.686 13.1309H218.128C218.793 13.1309 219.331 12.5647 219.331 11.8662V10.3724C219.331 9.67397 218.793 9.10779 218.128 9.10779Z" fill="#E6E8EC"/>
<path d="M224.352 13.4012C225.551 13.4012 226.523 12.3796 226.523 11.1193C226.523 9.85904 225.551 8.8374 224.352 8.8374C223.153 8.8374 222.181 9.85904 222.181 11.1193C222.181 12.3796 223.153 13.4012 224.352 13.4012Z" fill="#E6E8EC"/>
<path d="M272.65 21.2684V272.058C272.649 275.045 271.519 277.91 269.509 280.022C267.499 282.135 264.773 283.321 261.93 283.321H165.073C163.665 283.324 162.271 283.034 160.969 282.469C159.668 281.904 158.485 281.075 157.489 280.028C156.494 278.982 155.704 277.739 155.166 276.371C154.628 275.004 154.352 273.538 154.354 272.058V21.2684C154.353 19.7885 154.631 18.3232 155.169 16.956C155.708 15.5888 156.498 14.3465 157.493 13.3001C158.489 12.2537 159.67 11.4237 160.971 10.8574C162.272 10.2912 163.666 9.99973 165.073 9.99979H179.57V11.955C179.57 14.4158 180.5 16.7758 182.155 18.5159C183.811 20.2559 186.056 21.2335 188.397 21.2335H237.656C239.997 21.2335 242.242 20.256 243.897 18.5159C245.553 16.7758 246.482 14.4158 246.483 11.955V9.99979H261.93C263.338 9.99931 264.732 10.2905 266.033 10.8566C267.334 11.4227 268.516 12.2527 269.512 13.2992C270.507 14.3457 271.297 15.5881 271.835 16.9555C272.374 18.3229 272.651 19.7884 272.65 21.2684Z" fill="#6D6B31"/>
<path d="M262.921 175.103H164.478V188.535H262.921V175.103Z" fill="#E6E6E6"/>
<path d="M262.921 198.983H164.478V212.416H262.921V198.983Z" fill="#E6E6E6"/>
<path d="M262.921 222.863H164.478V236.296H262.921V222.863Z" fill="#E6E6E6"/>
<path d="M252.035 55.2029C257.263 55.2029 261.501 50.7481 261.501 45.2527C261.501 39.7574 257.263 35.3026 252.035 35.3026C246.808 35.3026 242.57 39.7574 242.57 45.2527C242.57 50.7481 246.808 55.2029 252.035 55.2029Z" fill="#C5C50E"/>
<path d="M262.723 78.5859H164.281V147.242H262.723V78.5859Z" fill="#E6E6E6"/>
<path d="M203.481 117.188C206.355 128.357 216.2 135.274 216.2 135.274C216.2 135.274 221.385 124.083 218.511 112.914C215.637 101.745 205.791 94.8275 205.791 94.8275C205.791 94.8275 200.606 106.019 203.481 117.188Z" fill="#3F3D56"/>
<path d="M207.704 114.788C215.591 122.859 216.555 135.265 216.555 135.265C216.555 135.265 204.73 134.587 196.843 126.516C188.956 118.445 187.993 106.038 187.993 106.038C187.993 106.038 199.817 106.717 207.704 114.788Z" fill="#C5C50E"/>
<path d="M229.629 117.188C226.754 128.357 216.909 135.274 216.909 135.274C216.909 135.274 211.724 124.083 214.598 112.914C217.473 101.745 227.318 94.8275 227.318 94.8275C227.318 94.8275 232.503 106.019 229.629 117.188Z" fill="#3F3D56"/>
<path d="M225.405 114.788C217.518 122.859 216.555 135.265 216.555 135.265C216.555 135.265 228.379 134.587 236.266 126.516C244.153 118.445 245.117 106.038 245.117 106.038C245.117 106.038 233.292 106.717 225.405 114.788Z" fill="#C5C50E"/>
<path d="M70.3101 191.016C70.3101 191.016 75.4236 199.542 73.5974 201.85C71.7712 204.158 87.2987 204.216 87.2987 204.216C87.2987 204.216 84.9663 191.814 85.6528 188.96L70.3101 191.016Z" fill="#FFB8B8"/>
<path d="M78.4823 194.106C87.3379 194.106 94.5169 186.56 94.5169 177.251C94.5169 167.942 87.3379 160.395 78.4823 160.395C69.6267 160.395 62.4478 167.942 62.4478 177.251C62.4478 186.56 69.6267 194.106 78.4823 194.106Z" fill="#2F2E41"/>
<path d="M116.195 268.611V278.604L125.701 276.522L124.909 269.444L116.195 268.611Z" fill="#FFB8B8"/>
<path d="M149.861 270.277L176.398 274.856L169.664 285.265C169.664 285.265 151.049 278.603 146.297 278.603C141.544 278.603 149.861 270.277 149.861 270.277Z" fill="#FFB8B8"/>
<path d="M89.6586 250.292C89.6586 250.292 109.462 226.144 115.799 227.393C122.136 228.643 124.909 236.137 124.909 236.137L128.473 273.191C128.473 273.191 115.799 274.44 115.799 273.191C115.799 271.942 113.423 245.296 113.423 245.296C113.423 245.296 94.8075 288.596 84.9058 259.868L89.6586 250.292Z" fill="#D0CDE1"/>
<path d="M57.5776 266.53C57.5776 266.53 57.9737 288.342 69.8557 289.591C81.7377 290.84 94.8079 280.269 94.8079 280.269L116.196 269.498C116.196 269.498 141.544 283.6 149.069 279.852C149.069 279.852 156.99 271.109 151.842 268.611C146.693 266.113 151.445 268.611 151.445 268.611L120.948 251.958C120.948 251.958 115.007 250.292 104.71 254.872C94.4118 259.452 80.5495 261.533 80.5495 261.533L57.5776 266.53Z" fill="#D0CDE1"/>
<path d="M77.3805 195.335C83.9428 195.335 89.2625 189.743 89.2625 182.845C89.2625 175.947 83.9428 170.355 77.3805 170.355C70.8183 170.355 65.4985 175.947 65.4985 182.845C65.4985 189.743 70.8183 195.335 77.3805 195.335Z" fill="#FFB8B8"/>
<path d="M94.4117 217.818L93.6195 235.304C93.6195 235.304 94.0156 258.203 90.451 259.868C88.6489 260.709 85.0288 262.399 81.6821 264.248C79.171 265.63 76.8144 267.096 75.4995 268.357C75.1509 268.669 74.8502 269.036 74.6083 269.444C73.0241 272.358 62.7263 271.942 60.3499 269.86C57.9735 267.779 59.5578 272.358 57.5774 273.191C55.6605 273.999 53.0029 267.396 54.6307 257.537C54.6822 257.208 54.7416 256.875 54.805 256.537C56.6229 246.982 53.7673 224.096 54.2069 215.253C54.2325 214.577 54.3 213.904 54.4089 213.238C55.5971 206.576 70.7585 193.02 73.5944 198.795C77.0877 205.923 85.112 199.411 86.4903 196.168C94.4117 195.752 97.1841 205.744 97.1841 205.744L94.4117 217.818Z" fill="#C5C50E"/>
<path d="M126.493 274.856C126.493 274.856 120.156 277.354 118.176 276.938C116.195 276.522 114.215 278.187 114.215 280.685C114.215 283.183 111.839 289.012 115.403 289.428C118.968 289.845 133.622 289.012 136.791 290.261C136.791 290.261 151.049 290.677 149.861 284.432C148.673 278.187 142.732 278.603 142.732 278.603C142.732 278.603 126.493 277.771 126.493 274.856Z" fill="#2F2E41"/>
<path d="M172.833 276.105C172.833 276.105 173.625 273.607 174.813 273.607C176.001 273.607 185.507 275.273 186.695 274.856C187.883 274.44 201.746 273.607 199.369 280.685C196.993 287.763 189.072 288.596 189.072 288.596C189.072 288.596 174.813 286.93 172.833 287.347C170.852 287.763 163.723 287.347 164.912 285.265C166.1 283.183 173.625 279.436 172.833 276.105Z" fill="#2F2E41"/>
<path d="M136.78 216.304L138.953 225.726C138.977 225.831 138.974 225.941 138.942 226.044L129.085 258.422C129.046 258.551 128.967 258.661 128.86 258.735C128.753 258.809 128.625 258.842 128.497 258.829C128.37 258.816 128.251 258.757 128.159 258.662C128.068 258.568 128.011 258.443 127.996 258.31L126.632 245.696C126.623 245.612 126.632 245.527 126.656 245.447L135.704 216.26C135.742 216.138 135.816 216.033 135.916 215.959C136.016 215.886 136.136 215.849 136.258 215.854C136.379 215.859 136.496 215.906 136.591 215.987C136.685 216.068 136.751 216.179 136.78 216.304Z" fill="#3F3D56"/>
<path d="M135.981 217.099L137.988 225.183L129.294 254.707L127.288 245.569L135.981 217.099Z" fill="white"/>
<path d="M92.1799 261.034C92.5142 262.088 126.953 260.682 127.288 260.331C127.579 259.891 127.826 259.42 128.023 258.925C128.338 258.222 128.625 257.519 128.625 257.519L127.288 246.138L93.1829 244.866C93.1829 244.866 92.3303 254.51 92.1564 258.925C92.0972 259.627 92.105 260.334 92.1799 261.034Z" fill="#3F3D56"/>
<path opacity="0.1" d="M122.941 247.677L123.61 257.519H108.563V247.677H122.941Z" fill="black"/>
<path opacity="0.1" d="M103.548 250.841L103.638 250.822L103.214 255.059H94.8545V250.841H103.548Z" fill="black"/>
<path opacity="0.1" d="M92.1799 261.034C92.5142 262.088 126.953 260.682 127.288 260.331C127.579 259.891 127.826 259.42 128.023 258.925H92.1564C92.0972 259.627 92.105 260.334 92.1799 261.034Z" fill="black"/>
<path d="M81.1386 163.522C83.6065 163.522 85.6072 161.419 85.6072 158.824C85.6072 156.23 83.6065 154.127 81.1386 154.127C78.6706 154.127 76.6699 156.23 76.6699 158.824C76.6699 161.419 78.6706 163.522 81.1386 163.522Z" fill="#2F2E41"/>
<path d="M79.7952 163.938C79.7952 163.938 75.2296 171.92 64.6131 174.909C53.9966 177.897 64.5264 194.667 64.5264 194.667C64.5264 194.667 60.6974 188.569 66.2202 182.111C71.743 175.653 80.6307 171.237 79.7952 163.938Z" fill="#2F2E41"/>
<path opacity="0.1" d="M81.682 264.248C80.7037 266.192 79.5551 268.212 79.3611 269.028C79.2304 269.581 77.7808 269.261 75.4994 268.357C70.9248 266.538 62.9956 262.37 55.597 258.203C55.256 258.013 54.9325 257.79 54.6307 257.537C54.6821 257.208 54.7416 256.875 54.8049 256.537C56.6229 246.982 53.7672 224.096 54.2069 215.253L57.5774 214.071L64.3105 220.732V249.043C64.3105 249.043 81.7375 259.035 82.9257 259.868C83.5317 260.293 82.6959 262.229 81.682 264.248Z" fill="black"/>
<path d="M96.3924 241.549L107.086 247.378C107.086 247.378 113.423 240.3 117.384 245.712C121.345 251.125 105.898 252.79 105.898 252.79C105.898 252.79 92.4317 249.46 92.0357 244.88C91.6396 240.3 96.3924 241.549 96.3924 241.549Z" fill="#FFB8B8"/>
<path d="M78.569 256.954L84.9061 258.619C84.9061 258.619 92.0353 249.46 99.5606 252.79C107.086 256.121 90.055 262.782 90.055 262.782C90.055 262.782 80.9455 267.779 77.3809 263.615C73.8163 259.452 78.569 256.954 78.569 256.954Z" fill="#FFB8B8"/>
<path d="M92.4312 201.997C92.8273 202.413 97.184 205.744 97.184 205.744C97.184 205.744 98.3722 221.565 96.788 224.895C95.2037 228.226 94.0155 228.226 95.2037 229.891C96.3919 231.557 97.9762 230.308 96.3919 233.222C94.8076 236.137 93.2234 235.72 94.4116 236.969C95.5998 238.218 95.2037 238.635 95.2037 238.635L99.9565 242.798C99.9565 242.798 97.0405 247.68 93.3497 247.321C89.6588 246.961 86.4902 228.226 86.4902 228.226L92.4312 201.997Z" fill="#C5C50E"/>
<path d="M57.5775 211.989L54.0129 213.238C54.0129 213.238 44.5073 249.876 55.5972 256.121C66.687 262.366 78.9651 268.611 79.3612 266.946C79.7572 265.28 84.114 258.619 82.9258 257.786C81.7375 256.954 64.3106 246.961 64.3106 246.961V218.65L57.5775 211.989Z" fill="#C5C50E"/>
<path opacity="0.1" d="M62.9241 227.185L62.1323 247.17L83.1238 257.578L63.7164 247.17L62.9241 227.185Z" fill="black"/>
<path d="M420.274 289.721H0V290.835H420.274V289.721Z" fill="#E5E4F4"/>
</svg>
