<svg width="548" height="336" viewBox="0 0 548 336" fill="none" xmlns="http://www.w3.org/2000/svg">
<path d="M416.594 298.952C485.121 298.952 540.673 244.295 540.673 176.872C540.673 109.449 485.121 54.7915 416.594 54.7915C348.067 54.7915 292.516 109.449 292.516 176.872C292.516 244.295 348.067 298.952 416.594 298.952Z" fill="#5B5731"/>
<path d="M67.3179 93.2423C93.4876 93.2423 114.702 72.3693 114.702 46.6212C114.702 20.873 93.4876 0 67.3179 0C41.1483 0 19.9336 20.873 19.9336 46.6212C19.9336 72.3693 41.1483 93.2423 67.3179 93.2423Z" fill="#AFAA30"/>
<path d="M152.317 250.408C220.843 250.408 276.395 195.751 276.395 128.328C276.395 60.9052 220.843 6.24805 152.317 6.24805C83.7899 6.24805 28.238 60.9052 28.238 128.328C28.238 195.751 83.7899 250.408 152.317 250.408Z" fill="#EED812"/>
<path d="M146.455 257.137C221.726 257.137 282.745 253.909 282.745 249.928C282.745 245.946 221.726 242.718 146.455 242.718C71.1831 242.718 10.1636 245.946 10.1636 249.928C10.1636 253.909 71.1831 257.137 146.455 257.137Z" fill="#3F3D56"/>
<path opacity="0.1" d="M119.099 255.149C175.485 255.149 221.195 252.923 221.195 250.177C221.195 247.431 175.485 245.205 119.099 245.205C62.7127 245.205 17.0027 247.431 17.0027 250.177C17.0027 252.923 62.7127 255.149 119.099 255.149Z" fill="black"/>
<path d="M411.709 308.084C486.981 308.084 548 304.533 548 300.154C548 295.774 486.981 292.223 411.709 292.223C336.438 292.223 275.418 295.774 275.418 300.154C275.418 304.533 336.438 308.084 411.709 308.084Z" fill="#3F3D56"/>
<path opacity="0.1" d="M384.353 305.896C440.739 305.896 486.449 303.448 486.449 300.427C486.449 297.407 440.739 294.958 384.353 294.958C327.967 294.958 282.257 297.407 282.257 300.427C282.257 303.448 327.967 305.896 384.353 305.896Z" fill="black"/>
<path d="M195.84 285.975C243.875 285.975 282.814 284.038 282.814 281.649C282.814 279.26 243.875 277.324 195.84 277.324C147.806 277.324 108.866 279.26 108.866 281.649C108.866 284.038 147.806 285.975 195.84 285.975Z" fill="#3F3D56"/>
<path d="M41.9634 269.318C65.1392 269.318 83.9269 268.383 83.9269 267.231C83.9269 266.078 65.1392 265.144 41.9634 265.144C18.7877 265.144 0 266.078 0 267.231C0 268.383 18.7877 269.318 41.9634 269.318Z" fill="#3F3D56"/>
<path d="M465.503 336C508.637 336 543.604 334.261 543.604 332.116C543.604 329.971 508.637 328.231 465.503 328.231C422.369 328.231 387.402 329.971 387.402 332.116C387.402 334.261 422.369 336 465.503 336Z" fill="#3F3D56"/>
<path d="M457.139 208.113H300.82V299.433H457.139V208.113Z" fill="#3F3D56"/>
<path d="M351.135 289.34C370.56 289.34 386.307 273.846 386.307 254.734C386.307 235.622 370.56 220.129 351.135 220.129C331.71 220.129 315.963 235.622 315.963 254.734C315.963 273.846 331.71 289.34 351.135 289.34Z" fill="#BDBD09"/>
<path d="M408.778 222.532H397.054V234.067H408.778V222.532Z" fill="#BDBD09"/>
<path opacity="0.5" d="M423.433 222.532H411.709V234.067H423.433V222.532Z" fill="#BDBD09"/>
<path opacity="0.2" d="M438.088 222.532H426.364V234.067H438.088V222.532Z" fill="#BDBD09"/>
<path d="M408.778 236.951H397.054V248.486H408.778V236.951Z" fill="#2F2E41"/>
<path opacity="0.5" d="M423.433 236.951H411.709V248.486H423.433V236.951Z" fill="#2F2E41"/>
<path opacity="0.2" d="M438.088 236.951H426.364V248.486H438.088V236.951Z" fill="#2F2E41"/>
<path d="M408.778 251.37H397.054V262.905H408.778V251.37Z" fill="#FF6584"/>
<path opacity="0.5" d="M423.433 251.37H411.709V262.905H423.433V251.37Z" fill="#FF6584"/>
<path opacity="0.2" d="M438.088 251.37H426.364V262.905H438.088V251.37Z" fill="#FF6584"/>
<path opacity="0.5" d="M351.135 220.129V289.34C370.56 289.34 387.284 273.846 387.284 254.734C387.284 235.622 370.56 220.129 351.135 220.129Z" fill="#3F3D56"/>
<path d="M490.601 214.602C490.601 214.602 511.118 223.734 503.791 234.307C496.463 244.881 474.481 265.068 473.993 269.393C473.504 273.719 470.573 277.564 470.573 277.564C470.573 277.564 460.803 267.471 461.78 266.51C462.757 265.548 472.527 256.416 473.016 254.013C473.504 251.61 488.159 232.866 488.159 232.866L474.97 221.33L490.601 214.602Z" fill="#FFB9B9"/>
<path opacity="0.1" d="M490.601 214.602C490.601 214.602 511.118 223.734 503.791 234.307C496.463 244.881 474.481 265.068 473.993 269.393C473.504 273.719 470.573 277.564 470.573 277.564C470.573 277.564 460.803 267.471 461.78 266.51C462.757 265.548 472.527 256.416 473.016 254.013C473.504 251.61 488.159 232.866 488.159 232.866L474.97 221.33L490.601 214.602Z" fill="black"/>
<path d="M464.711 234.788C464.711 234.788 478.878 240.556 477.901 249.688C476.924 258.82 494.998 284.774 494.998 284.774C494.998 284.774 496.952 291.022 496.464 292.944C495.975 294.867 509.164 294.386 509.164 294.386V290.061C509.164 290.061 498.906 272.758 497.929 267.952C496.952 263.145 491.09 244.401 491.09 244.401C491.09 244.401 489.136 227.579 479.366 227.579C476.522 227.579 473.717 228.23 471.174 229.481C468.63 230.733 466.418 232.55 464.711 234.788Z" fill="#FFB9B9"/>
<path d="M465.444 191.291C465.444 191.291 494.754 214.842 493.777 216.764C492.8 218.687 478.633 225.896 476.191 226.377C473.748 226.858 456.466 191.291 456.466 191.291H465.444Z" fill="#2F2E41"/>
<path opacity="0.1" d="M465.444 191.291C465.444 191.291 494.754 214.842 493.777 216.764C492.8 218.687 478.633 225.896 476.191 226.377C473.748 226.858 456.466 191.291 456.466 191.291H465.444Z" fill="black"/>
<path d="M433.691 196.097C433.691 196.097 430.76 209.074 438.576 214.361C446.392 219.648 459.582 240.315 461.047 240.315C462.513 240.315 483.518 229.26 482.541 227.338C481.564 225.415 470.817 208.593 470.817 208.593L467.398 190.81C467.398 190.81 437.599 189.849 433.691 196.097Z" fill="#2F2E41"/>
<path d="M465.444 153.802L469.84 181.678L477.656 201.384C477.656 201.384 489.38 213.4 482.541 214.361C475.702 215.322 471.794 201.384 471.794 201.384L465.444 189.849V153.802Z" fill="#FFB9B9"/>
<path opacity="0.1" d="M465.444 153.802L469.84 181.678L477.656 201.384C477.656 201.384 489.38 213.4 482.541 214.361C475.702 215.322 471.794 201.384 471.794 201.384L465.444 189.849V153.802Z" fill="black"/>
<path d="M449.079 122.801C449.079 122.801 449.079 132.895 445.66 133.856C442.24 134.817 459.338 147.794 459.338 147.794C459.338 147.794 457.384 130.972 464.223 126.646L449.079 122.801Z" fill="#FFB9B9"/>
<path opacity="0.1" d="M449.079 122.801C449.079 122.801 449.079 132.895 445.66 133.856C442.24 134.817 459.338 147.794 459.338 147.794C459.338 147.794 457.384 130.972 464.223 126.646L449.079 122.801Z" fill="black"/>
<path d="M456.895 130.972C463.1 130.972 468.131 126.023 468.131 119.917C468.131 113.812 463.1 108.863 456.895 108.863C450.69 108.863 445.66 113.812 445.66 119.917C445.66 126.023 450.69 130.972 456.895 130.972Z" fill="#FFB9B9"/>
<path d="M457.384 142.988C457.384 142.988 447.125 130.491 445.66 130.972C444.194 131.453 433.447 142.027 432.47 145.391C431.493 148.755 429.539 172.787 431.005 177.593C432.47 182.399 432.47 194.896 431.982 195.857C431.493 196.818 428.562 199.222 431.493 199.222C434.424 199.222 444.683 192.012 451.522 193.454C458.361 194.896 467.642 192.973 468.131 192.012C468.619 191.051 467.642 166.058 468.131 164.136C468.619 162.213 467.154 152.6 466.665 150.678C466.177 148.755 466.177 141.065 461.292 139.143L459.209 138.94L459.092 143.694L457.384 142.988Z" fill="#BDBD09"/>
<path d="M435.89 167.98C435.89 167.98 436.867 182.88 444.194 189.128C451.522 195.376 467.154 205.95 468.131 207.873C469.108 209.795 478.389 219.889 480.343 215.563C480.91 214.214 481.047 212.728 480.735 211.301C480.451 209.883 479.875 208.537 479.043 207.346C478.212 206.154 477.141 205.143 475.897 204.374L471.55 201.625L450.056 179.516L449.079 167.98H435.89Z" fill="#FFB9B9"/>
<path d="M463.978 264.827C463.978 264.827 458.361 263.626 456.407 266.99C454.453 270.355 458.361 279.486 458.361 279.486C458.361 279.486 469.596 302.557 471.55 299.673C473.504 296.789 470.085 286.215 470.085 286.215C470.085 286.215 474.97 275.641 473.016 275.161C471.062 274.68 463.978 270.595 463.978 264.827Z" fill="#2F2E41"/>
<path d="M498.418 292.464C498.418 292.464 495.487 291.022 494.998 292.464C494.51 293.906 491.579 301.115 494.998 302.076C498.418 303.038 532.124 303.999 531.147 302.076C530.17 300.154 524.796 297.751 521.377 296.789C517.957 295.828 509.164 288.619 509.164 288.619C509.164 288.619 504.279 294.867 498.418 292.464Z" fill="#2F2E41"/>
<path d="M468.213 111.144C468.002 110.446 467.538 109.85 466.908 109.468C466.941 108.721 466.848 107.973 466.633 107.256C465.915 105.168 464.214 105.288 462.61 104.364C461.914 103.964 461.957 103.61 461.594 102.952C461.119 102.09 460.408 101.376 459.541 100.891C458.512 100.246 457.425 99.5813 456.207 99.4996C453.648 99.328 451.686 101.696 449.24 102.456C448.162 102.791 447.003 102.805 445.919 103.122C444.836 103.439 443.754 104.195 443.593 105.296C443.518 105.804 443.65 106.326 443.574 106.834C443.424 107.844 442.523 108.551 441.92 109.382C440.587 111.219 440.74 113.814 441.806 115.813C442.03 116.227 442.287 116.622 442.574 116.997C442.663 117.942 442.939 118.86 443.386 119.701C444.452 121.699 446.287 123.193 448.203 124.434C448.047 123.771 447.951 123.096 447.919 122.416C447.892 122.189 447.922 121.959 448.006 121.747C448.22 121.308 448.784 121.191 449.214 120.951C450.105 120.453 450.454 119.351 450.48 118.343C450.505 117.336 450.288 116.326 450.396 115.324C450.4 115.094 450.453 114.866 450.552 114.657C450.651 114.448 450.793 114.262 450.97 114.111C451.298 113.926 451.674 113.838 452.052 113.857C453.876 113.783 455.783 113.75 457.393 112.901C457.912 112.562 458.47 112.284 459.055 112.074C460.423 111.723 461.821 112.666 462.609 113.821C463.398 114.975 463.791 116.349 464.518 117.542C465.246 118.735 466.502 119.798 467.908 119.657C467.988 119.657 468.066 119.641 468.138 119.609C468.211 119.577 468.276 119.531 468.328 119.473C468.389 119.366 468.416 119.243 468.406 119.121L468.484 113.832C468.55 112.927 468.458 112.018 468.213 111.144Z" fill="#2F2E41"/>
<path d="M440.286 143.468C440.286 143.468 451.033 148.275 450.545 158.368C450.056 168.461 453.476 169.422 445.171 170.384C436.867 171.345 434.913 170.384 434.424 171.345C433.936 172.306 431.005 149.236 432.959 146.833C434.913 144.43 440.286 143.468 440.286 143.468Z" fill="#BDBD09"/>
<path d="M224.126 62.0016C232.759 62.0016 239.758 55.1156 239.758 46.6214C239.758 38.1271 232.759 31.2412 224.126 31.2412C215.493 31.2412 208.494 38.1271 208.494 46.6214C208.494 55.1156 215.493 62.0016 224.126 62.0016Z" fill="#2F2E41"/>
<path d="M234.628 215.082L225.836 238.633C225.836 238.633 218.508 244.4 222.905 246.323C227.301 248.246 236.094 244.4 236.094 244.4L242.933 227.098L241.956 215.082H234.628Z" fill="#2F2E41"/>
<path opacity="0.1" d="M234.628 215.082L225.836 238.633C225.836 238.633 218.508 244.4 222.905 246.323C227.301 248.246 236.094 244.4 236.094 244.4L242.933 227.098L241.956 215.082H234.628Z" fill="black"/>
<path d="M235.361 75.459L242.689 76.4202C242.689 76.4202 246.108 102.855 244.643 104.777C243.177 106.7 235.85 114.39 232.919 112.468C229.988 110.545 235.361 75.459 235.361 75.459Z" fill="#575A89"/>
<path d="M165.262 123.762C165.262 123.762 155.003 128.088 153.049 128.569C151.095 129.049 148.164 133.855 151.584 134.817C155.003 135.778 168.193 126.165 168.193 126.165L165.262 123.762Z" fill="#A0616A"/>
<path d="M238.048 224.695L243.422 244.401C243.422 244.401 243.91 251.61 246.353 252.091C248.795 252.571 256.123 249.688 256.123 248.726C256.123 247.765 253.192 240.075 253.192 240.075C253.192 240.075 253.192 234.307 250.261 231.904C247.33 229.501 244.689 221.451 244.689 221.451L238.048 224.695Z" fill="#2F2E41"/>
<path d="M244.887 179.516C245.874 181.779 245.752 198.202 244.672 209.132C244.149 214.443 243.402 218.456 242.445 218.927L235.444 217.207L232.675 216.524L232.601 210.545L232.186 177.593L223.882 143.468V134.817L244.887 136.739L248.219 141.887L248.307 142.026C248.307 142.026 243.422 176.151 244.887 179.516Z" fill="#2F2E41"/>
<path opacity="0.1" d="M240.491 190.089C241.536 191.632 243.28 200.87 244.672 209.132C244.149 214.443 243.402 218.456 242.445 218.927L235.444 217.207C235.337 216.985 235.229 216.755 235.117 216.524C234.223 214.678 233.383 212.641 232.601 210.545L232.186 177.593L223.882 143.468V134.817L244.887 136.739L248.219 141.887L228.767 140.584L233.163 159.329L238.537 179.035C238.537 179.035 238.537 187.206 240.491 190.089Z" fill="black"/>
<path d="M205.807 115.591C205.807 115.591 198.968 130.491 208.738 151.158C214.784 164.019 220.164 177.173 224.859 190.57C224.859 190.57 228.278 206.431 233.163 216.524C238.048 226.617 237.071 227.098 237.071 227.098L244.887 222.772C244.887 222.772 240.49 192.973 238.536 190.089C236.582 187.205 236.582 179.035 236.582 179.035L231.209 159.329L226.813 140.584L248.306 142.026C248.306 142.026 248.306 114.63 238.536 109.343L205.807 115.591Z" fill="#2F2E41"/>
<path d="M213.867 53.8306C213.867 53.8306 213.867 61.5207 211.425 62.0013C208.982 62.4819 204.097 62.4819 202.632 64.8851C201.166 67.2882 213.867 99.0098 213.867 99.0098L227.057 90.8391L231.453 69.2107C231.453 69.2107 225.103 65.3657 225.103 63.4432V54.7918L213.867 53.8306Z" fill="#A0616A"/>
<path opacity="0.1" d="M213.867 53.8306C213.867 53.8306 213.867 61.5207 211.425 62.0013C208.982 62.4819 204.097 62.4819 202.632 64.8851C201.166 67.2882 213.867 99.0098 213.867 99.0098L227.057 90.8391L231.453 69.2107C231.453 69.2107 225.103 65.3657 225.103 63.4432V54.7918L213.867 53.8306Z" fill="black"/>
<path d="M221.439 62.2416C227.914 62.2416 233.163 57.0772 233.163 50.7065C233.163 44.3358 227.914 39.1714 221.439 39.1714C214.964 39.1714 209.715 44.3358 209.715 50.7065C209.715 57.0772 214.964 62.2416 221.439 62.2416Z" fill="#A0616A"/>
<path d="M215.333 89.3974C215.333 89.3974 210.936 62.0015 209.959 62.0015C208.982 62.0015 195.304 64.8852 194.327 65.3659C193.35 65.8465 189.931 70.1722 189.931 70.1722L196.77 89.3974C196.77 89.3974 199.701 102.855 201.655 105.258C203.609 107.661 207.517 114.39 205.563 115.351C203.609 116.313 201.655 117.755 203.609 117.755C205.563 117.755 221.683 114.871 222.66 116.313C223.637 117.755 239.758 111.026 239.758 110.545C239.758 110.065 237.804 87.4749 237.804 87.4749L242.689 76.4204L228.034 66.3271L215.333 89.3974Z" fill="#575A89"/>
<path d="M194.816 67.769L189.931 70.1722C189.931 70.1722 176.253 100.933 175.276 101.413C174.299 101.894 169.414 111.026 168.926 112.948C168.437 114.871 167.46 121.119 165.995 122.08C165.209 122.606 164.393 123.087 163.552 123.522C163.552 123.522 166.483 128.328 167.949 128.328C169.414 128.328 174.299 121.6 174.299 121.6C174.299 121.6 185.046 128.328 187.977 123.042C190.908 117.755 198.236 84.1105 198.236 84.1105L194.816 67.769Z" fill="#575A89"/>
<path d="M233.163 82.4282C233.163 82.4282 226.324 66.0868 222.416 68.0093C218.508 69.9318 225.347 81.467 229.744 83.3895L233.163 82.4282Z" fill="#A0616A"/>
<path opacity="0.1" d="M226.324 82.9087L233.178 81.3843L234.629 88.6763C234.629 88.6763 240.979 99.7308 239.514 104.537C238.048 109.343 229.255 117.033 226.324 112.708C223.393 108.382 220.951 101.653 222.905 97.8083C224.859 93.9632 227.79 84.8312 226.324 82.9087Z" fill="black"/>
<path d="M227.79 81.9473L234.644 80.4229L236.094 87.7149C236.094 87.7149 242.445 98.7694 240.979 103.576C239.514 108.382 230.721 116.072 227.79 111.746C224.859 107.421 222.416 100.692 224.37 96.8468C226.324 93.0018 229.255 83.8698 227.79 81.9473Z" fill="#575A89"/>
<path d="M235.231 48.3905C236.547 45.6262 232.861 41.1944 226.998 38.4918C221.134 35.7892 215.314 35.8393 213.998 38.6036C212.681 41.368 216.368 45.7998 222.231 48.5023C228.095 51.2049 233.915 51.1548 235.231 48.3905Z" fill="#2F2E41"/>
<path d="M233.407 40.3732C237.184 40.3732 240.246 37.3606 240.246 33.6444C240.246 29.9281 237.184 26.9155 233.407 26.9155C229.63 26.9155 226.568 29.9281 226.568 33.6444C226.568 37.3606 229.63 40.3732 233.407 40.3732Z" fill="#2F2E41"/>
<path d="M227.057 31.241C227.057 29.5814 227.681 27.9805 228.808 26.7458C229.935 25.5111 231.486 24.7298 233.163 24.552C232.208 24.4494 231.242 24.5459 230.327 24.8352C229.412 25.1246 228.57 25.6003 227.855 26.2314C227.139 26.8625 226.567 27.6348 226.176 28.4979C225.784 29.3611 225.582 30.2958 225.582 31.241C225.582 32.1863 225.784 33.121 226.176 33.9841C226.567 34.8473 227.139 35.6196 227.855 36.2507C228.57 36.8818 229.412 37.3575 230.327 37.6468C231.242 37.9362 232.208 38.0327 233.163 37.9301C231.486 37.7523 229.935 36.971 228.808 35.7363C227.681 34.5016 227.057 32.9006 227.057 31.241Z" fill="#2F2E41"/>
<path d="M202.632 133.135H31.6575V249.928H202.632V133.135Z" fill="#3F3D56"/>
<path d="M67.8064 144.67H45.3354V166.779H67.8064V144.67Z" fill="#F2F2F2"/>
<path d="M67.8064 180.717H45.3354V202.826H67.8064V180.717Z" fill="#BDBD09"/>
<path d="M67.8064 216.764H45.3354V238.873H67.8064V216.764Z" fill="#F2F2F2"/>
<path d="M185.535 151.639H78.5535V153.561H185.535V151.639Z" fill="#F2F2F2"/>
<path d="M111.771 157.887H78.5535V159.81H111.771V157.887Z" fill="#F2F2F2"/>
<path d="M185.535 187.686H78.5535V189.609H185.535V187.686Z" fill="#F2F2F2"/>
<path d="M111.771 193.935H78.5535V195.857H111.771V193.935Z" fill="#F2F2F2"/>
<path d="M185.535 223.733H78.5535V225.656H185.535V223.733Z" fill="#F2F2F2"/>
<path d="M111.771 229.982H78.5535V231.904H111.771V229.982Z" fill="#F2F2F2"/>
<path d="M483.518 321.51C483.518 331.293 477.608 334.709 470.315 334.709C470.146 334.709 469.977 334.707 469.81 334.703C469.472 334.696 469.136 334.681 468.806 334.658C462.224 334.2 457.112 330.608 457.112 321.51C457.112 312.095 469.339 300.214 470.26 299.333L470.262 299.332C470.297 299.297 470.315 299.28 470.315 299.28C470.315 299.28 483.518 311.727 483.518 321.51Z" fill="#BDBD09"/>
<path d="M469.834 333.212L474.663 326.574L469.821 333.942L469.809 334.703C469.472 334.696 469.136 334.681 468.806 334.658L469.326 324.87L469.322 324.794L469.331 324.781L469.38 323.855L464.527 316.47L469.395 323.162L469.407 323.358L469.8 315.963L465.645 308.331L469.851 314.666L470.26 299.333L470.261 299.28V299.332L470.193 311.422L474.33 306.629L470.176 312.463L470.067 319.085L473.93 312.73L470.051 320.059L469.99 323.741L475.596 314.895L469.969 325.025L469.834 333.212Z" fill="#3F3D56"/>
<path d="M55.1054 254.702C55.1054 264.486 49.1947 267.902 41.9022 267.902C41.7333 267.902 41.5644 267.899 41.3967 267.896C41.0588 267.889 40.7234 267.873 40.3929 267.85C33.8114 267.392 28.699 263.801 28.699 254.702C28.699 245.288 40.9264 233.406 41.8475 232.525L41.8487 232.524C41.884 232.489 41.9022 232.473 41.9022 232.473C41.9022 232.473 55.1054 244.919 55.1054 254.702Z" fill="#BDBD09"/>
<path d="M41.4211 266.405L46.2503 259.767L41.4089 267.134L41.3967 267.896C41.0589 267.889 40.7235 267.873 40.393 267.85L40.9131 258.063L40.9095 257.986L40.918 257.973L40.9678 257.048L36.1143 249.662L40.9824 256.354L40.9945 256.55L41.387 249.155L37.2322 241.524L41.4381 247.858L41.8476 232.525L41.8488 232.473V232.524L41.7808 244.614L45.9173 239.821L41.7637 245.656L41.6544 252.277L45.5175 245.922L41.6386 253.252L41.5778 256.933L47.1836 248.088L41.5559 258.217L41.4211 266.405Z" fill="#3F3D56"/>
</svg>
