<svg width="90" height="90" viewBox="0 0 90 90" fill="none" xmlns="http://www.w3.org/2000/svg">
<g filter="url(#filter0_f)">
<rect x="10" y="10" width="70" height="70" rx="5" fill="#34342F"/>
</g>
<path d="M67.3306 27.7164C65.7004 28.5134 63.9491 29.0519 62.108 29.2954C64.0077 28.0412 65.4289 26.0674 66.1065 23.7421C64.3217 24.9118 62.3684 25.7351 60.3314 26.1762C58.9615 24.5625 57.1471 23.493 55.1699 23.1335C53.1927 22.7741 51.1632 23.145 49.3966 24.1886C47.6299 25.2321 46.225 26.89 45.3999 28.9048C44.5748 30.9196 44.3756 33.1786 44.8334 35.3311C41.217 35.1308 37.6792 34.0937 34.4496 32.2872C31.2199 30.4807 28.3707 27.9451 26.0867 24.845C25.3058 26.3313 24.8567 28.0546 24.8567 29.8899C24.8558 31.5421 25.2246 33.1689 25.9303 34.6261C26.636 36.0834 27.6567 37.3259 28.902 38.2434C27.4578 38.1927 26.0455 37.7622 24.7825 36.9876V37.1168C24.7824 39.4341 25.5089 41.68 26.8387 43.4735C28.1686 45.2671 30.0199 46.4977 32.0785 46.9567C30.7388 47.3568 29.3342 47.4157 27.9707 47.129C28.5516 49.1229 29.683 50.8664 31.2065 52.1156C32.7301 53.3647 34.5696 54.057 36.4675 54.0954C33.2457 56.8858 29.2669 58.3994 25.171 58.3928C24.4455 58.393 23.7206 58.3462 23 58.2527C27.1575 61.2021 31.9972 62.7673 36.94 62.7612C53.6718 62.7612 62.8187 47.4715 62.8187 34.211C62.8187 33.7802 62.8089 33.345 62.7913 32.9142C64.5705 31.4946 66.1063 29.7367 67.3267 27.7229L67.3306 27.7164Z" fill="white"/>
<defs>
<filter id="filter0_f" x="0" y="0" width="90" height="90" filterUnits="userSpaceOnUse" color-interpolation-filters="sRGB">
<feFlood flood-opacity="0" result="BackgroundImageFix"/>
<feBlend mode="normal" in="SourceGraphic" in2="BackgroundImageFix" result="shape"/>
<feGaussianBlur stdDeviation="5" result="effect1_foregroundBlur"/>
</filter>
</defs>
</svg>
