<svg width="54" height="42" viewBox="0 0 54 42" fill="none" xmlns="http://www.w3.org/2000/svg">
<path fill-rule="evenodd" clip-rule="evenodd" d="M33.948 0.153013C34.3219 0.277429 34.6677 0.474296 34.9655 0.732371C35.2633 0.990445 35.5074 1.30467 35.6837 1.65709C35.8601 2.00951 35.9653 2.39322 35.9933 2.78631C36.0213 3.17939 35.9716 3.57414 35.847 3.94801L23.847 39.948C23.5956 40.7031 23.0545 41.3273 22.3428 41.6835C21.6311 42.0396 20.8071 42.0984 20.052 41.847C19.2969 41.5956 18.6727 41.0545 18.3165 40.3428C17.9604 39.6311 17.9016 38.8071 18.153 38.052L30.153 2.05201C30.2774 1.67809 30.4743 1.33234 30.7324 1.03452C30.9904 0.736695 31.3047 0.492639 31.6571 0.316289C32.0095 0.139939 32.3932 0.0347514 32.7863 0.00673604C33.1794 -0.0212793 33.5741 0.0284264 33.948 0.153013ZM14.121 9.87901C14.6834 10.4416 14.9994 11.2045 14.9994 12C14.9994 12.7955 14.6834 13.5584 14.121 14.121L7.242 21L14.121 27.879C14.4075 28.1558 14.6361 28.4868 14.7933 28.8528C14.9505 29.2188 15.0333 29.6125 15.0368 30.0108C15.0402 30.4091 14.9643 30.8042 14.8135 31.1729C14.6626 31.5416 14.4399 31.8765 14.1582 32.1582C13.8765 32.4399 13.5416 32.6626 13.1729 32.8135C12.8042 32.9643 12.4091 33.0402 12.0108 33.0368C11.6125 33.0333 11.2188 32.9505 10.8528 32.7933C10.4868 32.6361 10.1557 32.4075 9.879 32.121L0.879 23.121C0.316587 22.5584 0.000640869 21.7955 0.000640869 21C0.000640869 20.2045 0.316587 19.4416 0.879 18.879L9.879 9.87901C10.4416 9.3166 11.2045 9.00065 12 9.00065C12.7955 9.00065 13.5584 9.3166 14.121 9.87901ZM39.879 9.87901C40.4416 9.3166 41.2045 9.00065 42 9.00065C42.7955 9.00065 43.5584 9.3166 44.121 9.87901L53.121 18.879C53.6834 19.4416 53.9994 20.2045 53.9994 21C53.9994 21.7955 53.6834 22.5584 53.121 23.121L44.121 32.121C43.8443 32.4075 43.5132 32.6361 43.1472 32.7933C42.7812 32.9505 42.3875 33.0333 41.9892 33.0368C41.5909 33.0402 41.1958 32.9643 40.8271 32.8135C40.4585 32.6626 40.1235 32.4399 39.8418 32.1582C39.5601 31.8765 39.3374 31.5416 39.1865 31.1729C39.0357 30.8042 38.9598 30.4091 38.9632 30.0108C38.9667 29.6125 39.0495 29.2188 39.2067 28.8528C39.3639 28.4868 39.5925 28.1558 39.879 27.879L46.758 21L39.879 14.121C39.3166 13.5584 39.0006 12.7955 39.0006 12C39.0006 11.2045 39.3166 10.4416 39.879 9.87901Z" fill="#B9B9B9"/>
</svg>
