<svg width="46" height="46" viewBox="0 0 46 46" fill="none" xmlns="http://www.w3.org/2000/svg">
<path d="M10.4459 46V14.9639H0.587442V46H10.4459ZM5.51794 10.7239C8.95576 10.7239 11.0956 8.34064 11.0956 5.36242C11.0316 2.31704 8.95589 -3.05176e-05 5.58318 -3.05176e-05C2.211 -3.05176e-05 0.00579834 2.31708 0.00579834 5.36242C0.00579834 8.34078 2.14515 10.7239 5.45359 10.7239H5.51764H5.51794ZM15.9025 46H25.761V28.6679C25.761 27.7403 25.825 26.8137 26.0854 26.1506C26.798 24.2973 28.4202 22.3778 31.1435 22.3778C34.7108 22.3778 36.138 25.2239 36.138 29.3961V45.9998H45.9958V28.2039C45.9958 18.6709 41.1322 14.2352 34.6459 14.2352C29.3277 14.2352 26.9926 17.3458 25.6954 19.4645H25.7612V14.9632H15.9027C16.0321 17.8755 15.9027 45.9994 15.9027 45.9994L15.9025 46Z" fill="white"/>
</svg>
