<svg width="71" height="71" viewBox="0 0 71 71" fill="none" xmlns="http://www.w3.org/2000/svg">
<path d="M0 0H71V71H0V0Z" fill="#F7DF1E"/>
<path d="M18.6686 59.3325L24.1017 56.0443C25.1501 57.9028 26.1036 59.4753 28.3908 59.4753C30.5832 59.4753 31.9658 58.6178 31.9658 55.2819V32.5957H38.6379V55.3762C38.6379 62.2868 34.587 65.4324 28.6768 65.4324C23.3393 65.4324 20.2411 62.6681 18.6683 59.3319" fill="black"/>
<path d="M42.2619 58.6176L47.6945 55.4723C49.1248 57.8078 50.9836 59.5234 54.2718 59.5234C57.0366 59.5234 58.7994 58.1412 58.7994 56.2347C58.7994 53.9472 56.9883 53.1368 53.9381 51.8027L52.2704 51.0872C47.4566 49.0385 44.2635 46.4647 44.2635 41.0315C44.2635 36.0272 48.0762 32.2142 54.0338 32.2142C58.2755 32.2142 61.3257 33.6919 63.5178 37.5523L58.3226 40.8887C57.1786 38.8394 55.94 38.0293 54.0335 38.0293C52.0793 38.0293 50.8402 39.2685 50.8402 40.8887C50.8402 42.8903 52.0793 43.701 54.9388 44.9401L56.6067 45.6549C62.2784 48.0858 65.4714 50.5639 65.4714 56.1396C65.4714 62.1452 60.7533 65.4334 54.4146 65.4334C48.219 65.4334 44.2155 62.4785 42.2617 58.6179" fill="black"/>
</svg>
