<svg width="61" height="98" viewBox="0 0 61 98" fill="none" xmlns="http://www.w3.org/2000/svg">
<path d="M19.6711 75.7583C19.6711 75.7583 16.5263 77.9321 21.9093 78.6677C28.4308 79.552 31.7636 79.4254 38.9504 77.8084C38.9504 77.8084 40.84 79.2166 43.4785 80.4365C27.3681 88.6439 7.01694 79.961 19.6711 75.7583Z" fill="#5382A1"/>
<path d="M17.7024 65.0478C17.7024 65.0478 14.1751 68.1515 19.5622 68.8137C26.5286 69.668 32.03 69.7379 41.5498 67.559C41.5498 67.559 42.8666 69.1457 44.937 70.0135C25.4582 76.784 3.76249 70.5474 17.7024 65.0478Z" fill="#5382A1"/>
<path d="M34.2986 46.88C38.2684 52.3125 33.2557 57.2012 33.2557 57.2012C33.2557 57.2012 43.3352 51.0162 38.7061 43.2708C34.3828 36.0482 31.0671 32.459 49.0161 20.0855C49.0161 20.0855 20.8422 28.4495 34.2986 46.8798" fill="#E76F00"/>
<path d="M55.6062 83.68C55.6062 83.68 57.9335 85.9592 53.043 87.7227C43.7439 91.0714 14.3385 92.0825 6.16978 87.8561C3.23344 86.3379 8.74012 84.2306 10.4722 83.7882C12.2786 83.3226 13.3111 83.4095 13.3111 83.4095C10.0454 80.6749 -7.7966 88.7789 4.24828 91.0994C37.0961 97.4315 64.1264 88.2484 55.6062 83.68Z" fill="#5382A1"/>
<path d="M21.1832 53.9511C21.1832 53.9511 6.22608 58.1741 15.8867 59.7073C19.9656 60.3565 28.097 60.2098 35.6712 59.4552C41.8613 58.8349 48.0768 57.515 48.0768 57.515C48.0768 57.515 45.8942 58.6262 44.3151 59.9078C29.1261 64.6563 -0.21633 62.4473 8.23098 57.5901C15.3749 53.4854 21.1835 53.9511 21.1835 53.9511" fill="#5382A1"/>
<path d="M48.0151 71.7787C63.4558 62.2415 56.3166 53.0765 51.3337 54.3115C50.1123 54.6134 49.5678 54.8751 49.5678 54.8751C49.5678 54.8751 50.0212 54.0311 50.8871 53.6657C60.7448 49.546 68.3262 65.8157 47.7049 72.2593C47.7049 72.2596 47.9439 72.0058 48.0151 71.7787Z" fill="#5382A1"/>
<path d="M38.7062 0.104959C38.7062 0.104959 47.2574 10.2732 30.5958 25.9081C17.2351 38.4504 27.5491 45.6016 30.5903 53.7721C22.7914 45.4081 17.0678 38.0451 20.9077 31.1925C26.5433 21.1328 42.1562 16.2557 38.7062 0.104675" fill="#E76F00"/>
<path d="M22.7006 97.6219C37.5214 98.7498 60.2804 96.9963 60.8194 88.6603C60.8194 88.6603 59.7833 91.8207 48.5708 94.3302C35.9209 97.1597 20.3192 96.8294 11.0655 95.0159C11.0658 95.0159 12.9599 96.8796 22.7008 97.6219" fill="#5382A1"/>
</svg>
