<svg width="45" height="40" viewBox="0 0 45 40" fill="none" xmlns="http://www.w3.org/2000/svg">
<path d="M44.3306 4.71641C42.7004 5.51342 40.9491 6.05195 39.108 6.29536C41.0077 5.04123 42.4289 3.06739 43.1065 0.742122C41.3217 1.91177 39.3684 2.73507 37.3314 3.17624C35.9615 1.56254 34.1471 0.492951 32.1699 0.133537C30.1927 -0.225877 28.1632 0.144991 26.3966 1.18856C24.6299 2.23213 23.225 3.89002 22.3999 5.90483C21.5748 7.91964 21.3756 10.1786 21.8334 12.3311C18.217 12.1308 14.6792 11.0937 11.4496 9.28718C8.21993 7.48067 5.37067 4.94509 3.0867 1.84501C2.30575 3.33133 1.85671 5.0546 1.85671 6.88988C1.85584 8.54206 2.2246 10.1689 2.93028 11.6261C3.63595 13.0834 4.65673 14.3259 5.90203 15.2434C4.45781 15.1927 3.04546 14.7622 1.78252 13.9876V14.1168C1.78237 16.4341 2.50887 18.68 3.83873 20.4735C5.16859 22.2671 7.0199 23.4977 9.07854 23.9567C7.73879 24.3568 6.33416 24.4157 4.97075 24.129C5.55157 26.1229 6.68297 27.8664 8.20655 29.1156C9.73012 30.3647 11.5696 31.057 13.4675 31.0954C10.2457 33.8858 6.2669 35.3994 2.17104 35.3928C1.4455 35.393 0.720575 35.3462 0 35.2527C4.15753 38.2021 8.99721 39.7673 13.94 39.7612C30.6718 39.7612 39.8187 24.4715 39.8187 11.211C39.8187 10.7802 39.8089 10.345 39.7913 9.91422C41.5705 8.49462 43.1063 6.73672 44.3267 4.72287L44.3306 4.71641Z" fill="white"/>
</svg>
